<svg width="102" height="73" viewBox="0 0 102 73" fill="none" xmlns="http://www.w3.org/2000/svg">
<path d="M95.4805 2.82417C95.0247 3.25386 94.2435 3.87235 93.1367 4.67964C92.0299 5.47391 90.1745 6.73693 87.5703 8.4687C87.4792 8.48172 87.4987 8.35803 87.6289 8.09761C87.7721 7.83719 88.0195 7.50516 88.3711 7.10152C88.9831 6.61974 89.901 5.94917 91.125 5.0898C92.349 4.2174 94.0156 3.05855 96.125 1.61323C96.5417 1.4049 96.3268 1.80855 95.4805 2.82417ZM73.5273 19.582C73.7096 19.4257 74.0872 19.1523 74.6602 18.7617C75.2331 18.358 75.9427 17.8697 76.7891 17.2968C77.6484 16.7109 78.6185 16.0533 79.6992 15.3242C80.793 14.595 81.9388 13.8268 83.1367 13.0195C84.3477 12.2122 85.5846 11.3854 86.8477 10.539C88.1107 9.67964 89.3542 8.83329 90.5781 7.99995C91.8021 7.1536 92.974 6.3398 94.0938 5.55855C95.2266 4.76428 96.2487 4.03511 97.1602 3.37105C98.0846 2.69396 98.8724 2.09501 99.5234 1.57417C100.174 1.05334 100.643 0.643182 100.93 0.343703C101.346 0.0702655 101.418 0.304641 101.145 1.04683C100.871 1.77599 100.025 3.01948 98.6055 4.7773C95.5195 7.16011 91.7695 9.86193 87.3555 12.8828C82.9414 15.9036 79.2565 18.319 76.3008 20.1289C73.3581 21.9257 71.7435 22.9023 71.457 23.0585C71.0534 23.2929 70.8125 23.371 70.7344 23.2929C70.7344 23.1497 71.0534 22.6158 71.6914 21.6914C72.3294 20.8841 72.9414 20.1809 73.5273 19.582ZM61.418 40.9687C61.3789 41.3463 61.112 41.5286 60.6172 41.5156C60.1354 41.5546 59.8229 41.6914 59.6797 41.9257C59.5495 42.1471 59.582 42.4791 59.7773 42.9218C59.9727 43.3515 59.8945 43.8268 59.543 44.3476C59.2174 44.8294 58.7031 45.0377 58 44.9726C57.8307 44.9466 57.7005 44.914 57.6094 44.875C57.5182 44.8229 57.4401 44.7643 57.375 44.6992C57.2448 44.569 57.1536 44.3932 57.1016 44.1718C57.0625 43.9505 57.1797 43.8333 57.4531 43.8203H57.8242C58.3581 43.8203 58.7422 43.7291 58.9766 43.5468C59.1849 43.3645 59.2109 42.9934 59.0547 42.4335C58.8984 41.8737 59.0221 41.3984 59.4258 41.0078C59.8424 40.6041 60.3307 40.4414 60.8906 40.5195C61.2031 40.6106 61.3789 40.7604 61.418 40.9687ZM49.8359 47.8632C49.8229 48.0716 49.8164 48.2799 49.8164 48.4882C49.8164 49.9856 50.5065 51.0208 51.8867 51.5937C52.5117 51.8281 53.2669 52.0039 54.1523 52.121C55.0898 52.2122 55.8776 52.2578 56.5156 52.2578C58.4297 52.2578 60.1484 51.9778 61.6719 51.4179C63.7292 50.7148 65.168 49.8229 65.9883 48.7421C66.8086 47.6484 67.2708 46.4179 67.375 45.0507C67.5182 43.7487 67.6354 41.4505 67.7266 38.1562C67.8177 34.8489 67.9154 32.7265 68.0195 31.789C68.1237 30.8515 68.2148 30.2526 68.293 29.9921C68.5143 29.3671 68.8789 28.3125 69.3867 26.8281C69.8945 25.3307 70.2656 24.3541 70.5 23.8984C70.6693 23.8203 70.7865 23.8203 70.8516 23.8984C70.8906 23.9765 70.8385 24.3802 70.6953 25.1093C70.5521 25.8385 70.3958 26.8216 70.2266 28.0585C70.0964 29.2825 69.9466 31.8346 69.7773 35.7148C69.7383 37.8502 69.5951 40.1028 69.3477 42.4726C68.9049 45.7018 68.1758 48.2604 67.1602 50.1484C66.1445 52.0625 65.1354 53.5338 64.1328 54.5625C63.2604 55.513 62.2578 56.3007 61.125 56.9257C59.2891 57.9934 57.0495 58.5273 54.4062 58.5273C52.0104 58.5273 50.3112 58.0976 49.3086 57.2382C48.5273 56.496 48.1367 55.4544 48.1367 54.1132C48.319 51.5872 48.6445 49.4778 49.1133 47.7851V47.7656C49.1393 47.6484 49.1914 47.5572 49.2695 47.4921C49.3477 47.427 49.4258 47.3945 49.5039 47.3945C49.5951 47.3945 49.6732 47.4335 49.7383 47.5117C49.8034 47.5898 49.8359 47.707 49.8359 47.8632Z" fill="#50A7BB"/>
<path d="M87.1211 42.0039C86.9128 42.7721 86.6523 43.4492 86.3398 44.0351C86.0273 44.621 85.7018 45.0963 85.3633 45.4609C85.0247 45.7994 84.6471 46.1119 84.2305 46.3984C83.8138 46.6849 83.3711 46.9192 82.9023 47.1015C82.4206 47.2968 82.0104 47.5182 81.6719 47.7656C81.3333 48 81.0534 48.2539 80.832 48.5273C80.4935 48.8919 80.2005 49.3997 79.9531 50.0507C79.7057 50.6888 79.4453 51.3658 79.1719 52.082C78.9115 52.7981 78.6185 53.5013 78.293 54.1914C77.9805 54.8684 77.5833 55.4283 77.1016 55.871C76.4375 56.5742 75.4544 57.0494 74.1523 57.2968L70.5781 57.9023C70.474 57.9153 70.3503 57.9283 70.207 57.9414C70.0508 57.9414 69.9401 57.9349 69.875 57.9218C69.5755 57.8307 69.4844 57.6354 69.6016 57.3359C69.7188 57.0234 70.0247 56.7109 70.5195 56.3984C71.5221 55.7343 72.3229 55.2005 72.9219 54.7968C73.5208 54.3802 74.0091 54.0416 74.3867 53.7812C74.7643 53.5208 75.0638 53.3059 75.2852 53.1367C75.5195 52.9674 75.7669 52.7786 76.0273 52.5703C77.082 51.776 77.8112 50.9427 78.2148 50.0703C78.4492 49.6145 78.6641 49.1718 78.8594 48.7421C79.0547 48.3125 79.2565 47.8893 79.4648 47.4726C79.6862 47.0559 79.9206 46.6458 80.168 46.2421C80.4154 45.8255 80.7018 45.4088 81.0273 44.9921C81.3659 44.5755 81.8216 44.1718 82.3945 43.7812C82.9674 43.3776 83.6576 42.9804 84.4648 42.5898C85.4023 42.108 86.0078 41.483 86.2812 40.7148C86.4375 40.3502 86.6198 40.0052 86.8281 39.6796C87.0495 39.3541 87.2773 39.1783 87.5117 39.1523C87.7721 39.1914 87.8372 39.4713 87.707 39.9921C87.6419 40.2526 87.5573 40.552 87.4531 40.8906C87.362 41.2161 87.2513 41.5872 87.1211 42.0039ZM85.2461 67.4335C85.3503 67.8112 85.3438 68.2018 85.2266 68.6054C85.1224 69.0091 84.9206 69.4322 84.6211 69.875C84.4388 70.1744 84.2435 70.4414 84.0352 70.6757C83.8398 70.9231 83.6315 71.1575 83.4102 71.3789C83.3451 71.457 83.2409 71.5546 83.0977 71.6718C82.9544 71.789 82.8047 71.8997 82.6484 72.0039C82.4922 72.108 82.3424 72.1796 82.1992 72.2187C82.056 72.2708 81.9518 72.2578 81.8867 72.1796C81.418 71.802 80.9557 71.4179 80.5 71.0273C80.0443 70.6367 79.543 70.2721 78.9961 69.9335C78.9049 69.8684 78.8594 69.8033 78.8594 69.7382C78.8724 69.6862 78.9115 69.6015 78.9766 69.4843L82.1016 64.7187C82.1927 64.5885 82.2839 64.5234 82.375 64.5234C82.4661 64.5364 82.5638 64.5755 82.668 64.6406C82.9414 64.7968 83.2148 64.9726 83.4883 65.1679C83.7617 65.3632 84.0156 65.5716 84.25 65.7929C84.4844 66.0273 84.6862 66.2747 84.8555 66.5351C85.0378 66.8085 85.168 67.108 85.2461 67.4335Z" fill="#50A7BB"/>
<path d="M6.34766 32.7987C5.77474 34.0226 5.19531 35.2661 4.60938 36.5291C4.03646 37.7791 3.5612 38.977 3.18359 40.1229C2.33724 42.675 1.98568 44.6867 2.12891 46.158C2.24609 47.7075 2.85807 48.938 3.96484 49.8494C5.08464 50.7609 6.67969 51.2166 8.75 51.2166C10.4688 51.2166 12.1289 50.852 13.7305 50.1229C14.9284 49.589 15.9896 48.9315 16.9141 48.1502C17.8385 47.369 18.5482 46.5617 19.043 45.7283C19.5508 44.895 19.8047 44.1919 19.8047 43.619C19.8177 43.3585 19.6875 43.1372 19.4141 42.9549C19.1536 42.7726 18.8346 42.6164 18.457 42.4861C18.0794 42.3559 17.6888 42.2388 17.2852 42.1346C16.8815 42.0304 16.556 41.9263 16.3086 41.8221C15.7096 41.6007 15.2214 41.2752 14.8438 40.8455C14.4792 40.4028 14.3034 39.7453 14.3164 38.8729C14.3164 37.8312 14.6615 36.6007 15.3516 35.1815C15.4818 35.0122 15.6185 34.8885 15.7617 34.8104C15.9049 34.7322 16.0352 34.6997 16.1523 34.7127C16.2826 34.7257 16.3932 34.7713 16.4844 34.8494C16.5885 34.9276 16.6602 35.0382 16.6992 35.1815C16.6602 35.3768 16.7839 35.5721 17.0703 35.7674C17.3698 35.9627 17.9167 36.2036 18.7109 36.4901C19.5182 36.7765 20.0195 36.9979 20.2148 37.1541C20.8529 37.5838 21.1719 38.3781 21.1719 39.5369C21.1719 41.2817 20.8268 43.2869 20.1367 45.5526C19.4596 47.8052 18.5156 49.7648 17.3047 51.4315C16.7969 52.1997 16.1719 52.9614 15.4297 53.7166C14.6875 54.4718 13.8802 55.1033 13.0078 55.6111C11.3281 56.77 9.39453 57.3494 7.20703 57.3494C4.72005 57.3104 2.83203 56.4966 1.54297 54.908C0.957031 54.1007 0.553385 53.2414 0.332031 52.3299C0.110677 51.4315 0 50.5721 0 49.7518C0.0390625 48.2674 0.234375 46.7765 0.585938 45.2791C0.9375 43.7817 1.38672 42.3039 1.93359 40.8455C2.48047 39.3872 3.09896 37.9614 3.78906 36.5682C4.49219 35.175 5.20833 33.8403 5.9375 32.5643C6.05469 32.369 6.11979 32.2583 6.13281 32.2322C6.28906 31.9848 6.42578 31.8872 6.54297 31.9393H6.5625C6.60156 31.9783 6.60156 32.0565 6.5625 32.1737C6.53646 32.2908 6.46484 32.4992 6.34766 32.7987Z" fill="#50A7BB"/>
<path d="M15.3711 35.9158C15.9831 34.3533 16.3802 33.3703 16.5625 32.9666C17.3438 30.9093 17.7344 29.5096 17.7344 28.7674C17.7344 28.52 17.6172 28.0838 17.3828 27.4588C17.1094 26.7687 16.849 26.1697 16.6016 25.6619C16.4844 25.4666 16.3672 25.2713 16.25 25.076C16.1328 24.8807 16.0221 24.6854 15.918 24.4901C15.6836 24.1385 15.5859 23.8651 15.625 23.6697C15.8073 23.1229 15.9701 22.6346 16.1133 22.2049C16.2435 21.7752 16.3672 21.4041 16.4844 21.0916C17.0052 19.5291 17.4023 18.4744 17.6758 17.9276C18.3398 18.1489 18.9844 18.8911 19.6094 20.1541C20.1953 21.4302 20.4883 22.7322 20.4883 24.0604C20.4883 25.4276 20.1107 27.1463 19.3555 29.2166C18.8997 30.3234 18.4505 31.4432 18.0078 32.576C17.5651 33.6958 17.1354 34.8091 16.7188 35.9158C16.6536 36.0591 16.556 36.1632 16.4258 36.2283C16.2956 36.2934 16.1589 36.326 16.0156 36.326C15.8724 36.326 15.7422 36.2869 15.625 36.2088C15.4948 36.1437 15.4102 36.046 15.3711 35.9158ZM19.7852 6.8924C19.8893 7.27 19.8828 7.66063 19.7656 8.06428C19.6615 8.46792 19.4596 8.8911 19.1602 9.33381C18.9779 9.63329 18.7826 9.90672 18.5742 10.1541C18.3789 10.3885 18.1706 10.6164 17.9492 10.8377C17.8841 10.9158 17.7799 11.0135 17.6367 11.1307C17.4935 11.2479 17.3438 11.3585 17.1875 11.4627C17.0312 11.5669 16.8815 11.645 16.7383 11.6971C16.5951 11.7362 16.4909 11.7166 16.4258 11.6385C15.957 11.2609 15.4948 10.8768 15.0391 10.4862C14.5833 10.0955 14.082 9.73094 13.5352 9.3924C13.444 9.3273 13.4049 9.2687 13.418 9.21662C13.418 9.15152 13.4505 9.06037 13.5156 8.94318L16.6406 4.17756C16.7318 4.04735 16.8229 3.98875 16.9141 4.00178C17.0052 4.00178 17.1029 4.03433 17.207 4.09943C17.4805 4.25568 17.7539 4.43146 18.0273 4.62678C18.3008 4.82209 18.5547 5.03693 18.7891 5.27131C19.0234 5.49266 19.2253 5.74006 19.3945 6.01349C19.5768 6.27391 19.707 6.56688 19.7852 6.8924Z" fill="#50A7BB"/>
<path d="M26.3867 36.8807C26.2826 38.1828 25.9896 39.2895 25.5078 40.201C25.026 41.1125 24.4792 41.5682 23.8672 41.5682C23.8672 41.0734 24.0234 39.5369 24.3359 36.9588C24.6615 34.3807 24.9023 32.5382 25.0586 31.4315C25.2279 30.3117 25.4167 29.1268 25.625 27.8768C25.8333 26.6268 26.0352 25.6177 26.2305 24.8494C26.4518 24.2114 26.6862 23.5669 26.9336 22.9158C27.194 22.2648 27.4609 21.6203 27.7344 20.9822C27.9167 20.6958 28.0339 20.7414 28.0859 21.119C27.7604 23.2804 27.4609 25.5265 27.1875 27.8572C26.9141 30.175 26.7253 31.8351 26.6211 32.8377C26.5299 33.8403 26.4844 34.4263 26.4844 34.5955C26.4193 35.6632 26.3867 36.425 26.3867 36.8807Z" fill="#50A7BB"/>
<path d="M32.3828 34.0877C32.5781 34.4263 32.6693 34.7453 32.6562 35.0447C32.6432 35.3312 32.5521 35.6177 32.3828 35.9041C32.3177 35.9692 32.2396 36.0669 32.1484 36.1971C32.0703 36.3143 32.0182 36.4315 31.9922 36.5486C32.0312 36.5747 32.1745 36.5747 32.4219 36.5486C32.6693 36.5096 32.9753 36.464 33.3398 36.4119C33.7044 36.3468 34.1146 36.2687 34.5703 36.1776C35.0391 36.0864 35.5078 35.9888 35.9766 35.8846C36.4453 35.7674 36.8945 35.6567 37.3242 35.5526C37.7669 35.4354 38.1576 35.3247 38.4961 35.2205C38.7956 35.1424 39.0234 35.1229 39.1797 35.1619C39.3359 35.188 39.4336 35.2661 39.4727 35.3963C39.5247 35.5135 39.5247 35.6763 39.4727 35.8846C39.4336 36.0799 39.362 36.3078 39.2578 36.5682C39.1927 36.7765 39.0755 36.9848 38.9062 37.1932C38.737 37.4015 38.6003 37.6164 38.4961 37.8377C38.1445 38.4236 37.7799 39.0747 37.4023 39.7908C37.0378 40.494 36.6406 41.2036 36.2109 41.9197C35.7943 42.6359 35.3451 43.339 34.8633 44.0291C34.3945 44.7062 33.8737 45.3182 33.3008 45.8651C32.7409 46.4119 32.1289 46.8677 31.4648 47.2322C30.8008 47.5968 30.0781 47.8247 29.2969 47.9158C28.4635 47.9419 27.7539 47.8638 27.168 47.6815C26.582 47.4861 26.0938 47.2257 25.7031 46.9002C25.2995 46.5617 24.987 46.171 24.7656 45.7283C24.5312 45.2856 24.3555 44.8234 24.2383 44.3416C24.1081 43.8598 24.0234 43.3846 23.9844 42.9158C23.9323 42.4341 23.8997 41.9848 23.8867 41.5682C23.8867 41.3338 23.9453 41.0408 24.0625 40.6893C24.1667 40.3377 24.3034 39.9731 24.4727 39.5955C24.6289 39.2179 24.8047 38.8468 25 38.4822C25.1953 38.1177 25.3841 37.7986 25.5664 37.5252C25.7487 37.2518 25.918 37.0565 26.0742 36.9393C26.2174 36.8091 26.3281 36.7895 26.4062 36.8807C26.4583 37.6229 26.569 38.313 26.7383 38.951C26.9206 39.576 27.181 40.1033 27.5195 40.533C27.8711 40.9627 28.3138 41.2752 28.8477 41.4705C29.3815 41.6658 30.0326 41.7049 30.8008 41.5877C31.3216 41.5356 31.849 41.4184 32.3828 41.2361C32.9167 41.0408 33.4245 40.8 33.9062 40.5135C34.388 40.214 34.8307 39.8755 35.2344 39.4979C35.638 39.1072 35.9701 38.6841 36.2305 38.2283C36.3477 38.033 36.3151 37.9354 36.1328 37.9354C35.7552 38.0526 35.319 38.1632 34.8242 38.2674C34.3424 38.3716 33.8477 38.4627 33.3398 38.5408C32.8451 38.6059 32.3633 38.658 31.8945 38.6971C31.4388 38.7361 31.0612 38.7557 30.7617 38.7557C30.5664 38.7557 30.4167 38.7361 30.3125 38.6971C30.2083 38.645 30.1367 38.5799 30.0977 38.5018C30.0586 38.4236 30.0391 38.339 30.0391 38.2479C30.0521 38.1437 30.0781 38.0395 30.1172 37.9354C30.2995 37.3104 30.599 36.6463 31.0156 35.9432C31.4323 35.2401 31.888 34.6216 32.3828 34.0877Z" fill="#50A7BB"/>
<path d="M38.7891 33.9158C38.4245 33.6164 38.0273 33.4406 37.5977 33.3885C37.168 33.3364 36.7318 33.3625 36.2891 33.4666C35.8464 33.5578 35.4102 33.714 34.9805 33.9354C34.5638 34.1567 34.1797 34.3846 33.8281 34.619C33.4766 34.8664 33.1706 35.1007 32.9102 35.3221C32.6628 35.5565 32.487 35.7322 32.3828 35.8494C32.1224 35.9927 31.862 36.0578 31.6016 36.0447C31.3411 36.0317 31.1589 35.9666 31.0547 35.8494C32.1224 34.1177 33.3268 32.783 34.668 31.8455C36.0091 30.908 37.3828 30.3221 38.7891 30.0877C39.0625 30.882 39.1992 31.4549 39.1992 31.8065C39.1992 32.2231 39.1016 32.7635 38.9062 33.4276C38.9062 33.5838 38.8672 33.7466 38.7891 33.9158ZM40.0195 14.5994C40.1237 14.964 40.1172 15.3416 40 15.7322C39.8958 16.1229 39.707 16.5265 39.4336 16.9432C39.2122 17.2817 38.9844 17.6007 38.75 17.9002C38.5286 18.1867 38.2812 18.4601 38.0078 18.7205C37.8385 18.9028 37.6888 19.033 37.5586 19.1112C37.4284 19.1893 37.3177 19.2414 37.2266 19.2674C37.1354 19.2804 37.0573 19.2739 36.9922 19.2479C36.9271 19.2218 36.8685 19.1893 36.8164 19.1502C36.3607 18.7856 35.9115 18.421 35.4688 18.0565C35.0391 17.6789 34.5638 17.3273 34.043 17.0018C33.9779 16.9106 33.9453 16.8455 33.9453 16.8065C33.9453 16.7544 33.9779 16.6763 34.043 16.5721L37.0117 12.0018C37.1029 11.8846 37.1875 11.8325 37.2656 11.8455C37.3568 11.8455 37.4544 11.8781 37.5586 11.9432C37.819 12.0994 38.0794 12.2687 38.3398 12.451C38.6133 12.6203 38.8607 12.8156 39.082 13.0369C39.3034 13.2583 39.4987 13.4992 39.668 13.7596C39.8372 14.007 39.9544 14.2869 40.0195 14.5994ZM34.043 14.9705C34.043 15.0226 34.0495 15.0617 34.0625 15.0877C34.0625 15.1268 34.069 15.1593 34.082 15.1854C34.082 15.2114 34.082 15.244 34.082 15.283C34.0951 15.3091 34.1016 15.3351 34.1016 15.3612V15.6346C34.1016 15.6606 34.0951 15.6932 34.082 15.7322C34.082 15.7583 34.082 15.7843 34.082 15.8104L34.0234 16.0447C34.0234 16.0708 34.0169 16.0903 34.0039 16.1033C34.0039 16.1164 34.0039 16.1359 34.0039 16.1619L33.9258 16.3963C33.8997 16.4484 33.8737 16.5005 33.8477 16.5526C33.8346 16.6046 33.8151 16.6567 33.7891 16.7088C33.7891 16.7218 33.7826 16.7348 33.7695 16.7479C33.7695 16.7479 33.7695 16.7544 33.7695 16.7674L33.6719 16.9432C33.6458 17.0083 33.6133 17.0669 33.5742 17.119C33.5352 17.158 33.5026 17.2036 33.4766 17.2557C33.4505 17.2817 33.4375 17.3013 33.4375 17.3143L33.2031 17.6658L33.1055 17.8026C33.0794 17.8286 33.0534 17.8612 33.0273 17.9002C33.0143 17.9393 32.9948 17.9718 32.9688 17.9979C32.9167 18.076 32.8711 18.1346 32.832 18.1737L32.5195 18.5643C32.4935 18.5903 32.4805 18.6098 32.4805 18.6229C32.4544 18.6489 32.4219 18.6815 32.3828 18.7205C32.3568 18.7596 32.3242 18.7921 32.2852 18.8182L32.168 18.9354C32.1289 19.0005 32.0768 19.0526 32.0117 19.0916L31.8164 19.2869L31.7188 19.3651C31.5755 19.4822 31.4518 19.5604 31.3477 19.5994L31.2305 19.6385H31.0938C30.9896 19.6385 30.8984 19.5994 30.8203 19.5213C30.5339 19.3 30.2604 19.0721 30 18.8377C29.7266 18.6033 29.4401 18.3755 29.1406 18.1541C29.0495 18.076 28.9583 18.0044 28.8672 17.9393C28.5938 17.7309 28.3268 17.5421 28.0664 17.3729C28.0534 17.3729 28.0469 17.3664 28.0469 17.3533C27.9818 17.2882 27.9492 17.2296 27.9492 17.1776C27.9492 17.1255 27.9818 17.0473 28.0469 16.9432L31.0352 12.3924C31.0352 12.3794 31.0417 12.3664 31.0547 12.3533C31.1458 12.2362 31.2435 12.1906 31.3477 12.2166C31.3477 12.2166 31.3607 12.2231 31.3867 12.2362C31.3997 12.2362 31.4128 12.2427 31.4258 12.2557L31.5625 12.3143C31.5885 12.3403 31.6146 12.3598 31.6406 12.3729C31.6667 12.3729 31.6927 12.3859 31.7188 12.4119C31.7448 12.425 31.7708 12.438 31.7969 12.451C31.8229 12.464 31.849 12.4835 31.875 12.5096C31.9271 12.5356 31.9792 12.5682 32.0312 12.6072C32.1094 12.6593 32.1875 12.7114 32.2656 12.7635C32.3438 12.8026 32.4219 12.8546 32.5 12.9197L32.5781 12.9783C32.7865 13.1346 33.0013 13.3234 33.2227 13.5447L33.457 13.8182L33.6328 14.0526C33.724 14.1828 33.7956 14.313 33.8477 14.4432C33.8737 14.4822 33.8997 14.5408 33.9258 14.619L33.9844 14.7947C33.9974 14.8078 34.0039 14.8208 34.0039 14.8338C34.0039 14.8468 34.0104 14.8664 34.0234 14.8924C34.0234 14.9315 34.0299 14.9575 34.043 14.9705Z" fill="#50A7BB"/>
<path d="M47.832 21.4158C47.9232 21.2075 48.0339 21.0968 48.1641 21.0838C48.2943 21.0708 48.431 21.1619 48.5742 21.3572C48.8346 21.6697 49.1341 22.0148 49.4727 22.3924C49.8112 22.757 50.1107 23.1085 50.3711 23.4471C50.931 24.0981 51.1328 24.938 50.9766 25.9666C50.8854 26.3572 50.7227 26.7479 50.4883 27.1385C50.2669 27.5291 49.9609 27.9523 49.5703 28.408C49.3099 28.6684 48.9844 28.8768 48.5938 29.033C48.2031 29.1763 47.7409 29.1763 47.207 29.033C46.8164 28.9419 46.4779 28.8507 46.1914 28.7596C45.9049 28.6684 45.6445 28.6033 45.4102 28.5643C45.1888 28.5122 44.9805 28.4927 44.7852 28.5057C44.6029 28.5187 44.4206 28.5903 44.2383 28.7205C44.0169 28.9028 43.7695 29.1502 43.4961 29.4627C43.2357 29.7752 42.9557 30.1203 42.6562 30.4979C42.3698 30.8755 42.0703 31.2726 41.7578 31.6893C41.4453 32.0929 41.1328 32.477 40.8203 32.8416C40.625 33.076 40.4492 33.2713 40.293 33.4276C40.1367 33.5708 39.987 33.688 39.8438 33.7791C39.7005 33.8572 39.5443 33.9028 39.375 33.9158C39.2188 33.9419 39.0234 33.9419 38.7891 33.9158C38.724 33.6164 38.6589 33.3039 38.5938 32.9783C38.5286 32.6528 38.4896 32.3273 38.4766 32.0018C38.4505 31.6632 38.4635 31.3377 38.5156 31.0252C38.5547 30.6997 38.6458 30.3872 38.7891 30.0877C38.9583 30.0877 39.1211 30.1138 39.2773 30.1658C39.4466 30.2179 39.6029 30.2765 39.7461 30.3416C39.8893 30.3937 40.026 30.4393 40.1562 30.4783C40.2865 30.5174 40.3971 30.5304 40.4883 30.5174C40.6576 30.4653 40.8594 30.3156 41.0938 30.0682C41.3281 29.8078 41.569 29.5083 41.8164 29.1697C42.0768 28.8312 42.3307 28.4796 42.5781 28.1151C42.8385 27.7375 43.0794 27.3989 43.3008 27.0994C43.7826 26.3442 44.2578 25.6867 44.7266 25.1268C45.1953 24.5539 45.7096 24.0981 46.2695 23.7596C46.4779 23.6424 46.6406 23.4992 46.7578 23.3299C46.875 23.1606 46.9987 22.9783 47.1289 22.783L47.832 21.4158Z" fill="#50A7BB"/>
<path d="M55.8398 28.3065L57.8711 23.5213C58.0404 23.1307 58.1771 22.9354 58.2812 22.9354C58.4505 22.9354 58.5026 23.0591 58.4375 23.3065C58.3594 23.5799 58.2682 24.0552 58.1641 24.7322C58.0599 25.3963 57.9818 25.9171 57.9297 26.2947C57.8516 26.9588 57.7734 27.7075 57.6953 28.5408C57.6172 29.3742 57.5456 30.2335 57.4805 31.119C57.4154 31.9914 57.3503 32.8442 57.2852 33.6776C57.2201 34.5109 57.1484 35.2596 57.0703 35.9237C56.862 37.9419 56.543 39.6085 56.1133 40.9236C55.6836 42.2257 55.1823 43.4367 54.6094 44.5565C54.0365 45.6632 53.5742 46.2427 53.2227 46.2947C53.1315 46.2947 53.1576 46.0604 53.3008 45.5916C53.4701 45.1489 53.6263 44.5955 53.7695 43.9315C53.9258 43.2674 54.0625 42.5578 54.1797 41.8026C54.2969 41.0343 54.401 40.2531 54.4922 39.4588C54.5833 38.6515 54.6615 37.8898 54.7266 37.1736C54.8177 36.4966 54.8958 35.4875 54.9609 34.1463C55.026 32.7921 55.1237 31.6463 55.2539 30.7088C55.3841 29.7713 55.5794 28.9705 55.8398 28.3065Z" fill="#50A7BB"/>
</svg>
