<svg width="59" height="53" viewBox="0 0 59 53" fill="none" xmlns="http://www.w3.org/2000/svg">
<path d="M17.3242 18.9414C17.6497 19.0065 17.8711 19.1367 17.9883 19.332C18.1055 19.5273 18.0794 19.8138 17.9102 20.1914C17.5846 20.8555 16.8685 21.4935 15.7617 22.1055C14.6549 22.6784 13.0404 23.8568 10.918 25.6406C8.79557 27.4115 6.99219 29.5208 5.50781 31.9688C3.9974 34.6641 3.24219 37.138 3.24219 39.3906C3.21615 41.474 3.85417 43.1081 5.15625 44.293C6.45833 45.4909 8.18359 46.1484 10.332 46.2656C12.9492 46.4089 15.3841 46.0638 17.6367 45.2305C19.2253 44.6706 20.625 43.9479 21.8359 43.0625C22.6953 42.5026 23.4635 41.8711 24.1406 41.168C24.8177 40.4779 25.4622 39.7943 26.0742 39.1172C26.582 38.4792 26.9336 38.1927 27.1289 38.2578C27.3242 38.3099 27.1289 38.7201 26.543 39.4883C26.1003 40.1654 25.5924 40.901 25.0195 41.6953C20.1367 48.6354 14.6484 52.1771 8.55469 52.3203C5.67708 52.1901 3.5612 51.3503 2.20703 49.8008C0.852865 48.2513 0.175781 46.207 0.175781 43.668C0.266927 40.2044 1.41276 36.5326 3.61328 32.6523C5.13672 30.1914 6.88802 28.0104 8.86719 26.1094C9.17969 25.7969 9.71354 25.3086 10.4688 24.6445C11.237 23.9805 11.8555 23.4596 12.3242 23.082C12.793 22.7044 13.2227 22.3594 13.6133 22.0469C14.0039 21.7344 14.2318 21.5391 14.2969 21.4609C14.4792 21.2917 14.1797 21.1419 13.3984 21.0117C12.9557 20.9596 12.487 20.9206 11.9922 20.8945C11.5104 20.8685 11.0286 20.8555 10.5469 20.8555C10.0781 20.8555 9.62891 20.8685 9.19922 20.8945C8.76953 20.9206 8.39844 20.9596 8.08594 21.0117C7.63021 21.0898 7.53906 20.8555 7.8125 20.3086C8.00781 19.9049 8.26172 19.4753 8.57422 19.0195C8.88672 18.5508 9.21875 18.0755 9.57031 17.5938C9.92188 17.099 10.2734 16.6497 10.625 16.2461C11.0156 16.8451 11.0156 17.457 10.625 18.082L9.90234 18.8828C10.4753 18.7917 11.0872 18.7266 11.7383 18.6875C12.3893 18.6484 13.0404 18.6354 13.6914 18.6484C14.3424 18.6484 14.974 18.6745 15.5859 18.7266C16.2109 18.7786 16.7904 18.8503 17.3242 18.9414ZM12.8711 4.46875C12.9753 4.84635 12.9688 5.23698 12.8516 5.64062C12.7474 6.04427 12.5456 6.46745 12.2461 6.91016C12.0638 7.20964 11.8685 7.48307 11.6602 7.73047C11.4648 7.96484 11.2565 8.19271 11.0352 8.41406C10.9701 8.49219 10.8659 8.58984 10.7227 8.70703C10.5794 8.82422 10.4297 8.9349 10.2734 9.03906C10.1172 9.14323 9.96745 9.22135 9.82422 9.27344C9.68099 9.3125 9.57682 9.29297 9.51172 9.21484C9.04297 8.83724 8.58073 8.45312 8.125 8.0625C7.66927 7.67188 7.16797 7.30729 6.62109 6.96875C6.52995 6.90365 6.48438 6.84505 6.48438 6.79297C6.4974 6.72786 6.53646 6.63672 6.60156 6.51953L9.72656 1.75391C9.81771 1.6237 9.90885 1.5651 10 1.57812C10.0911 1.57812 10.1888 1.61068 10.293 1.67578C10.5664 1.83203 10.8398 2.00781 11.1133 2.20312C11.3867 2.39844 11.6406 2.61328 11.875 2.84766C12.1094 3.06901 12.3112 3.31641 12.4805 3.58984C12.6628 3.85026 12.793 4.14323 12.8711 4.46875Z" fill="#50A7BB"/>
<path d="M10.625 18C10.5208 17.7656 10.4492 17.4727 10.4102 17.1211C10.3711 16.7695 10.4427 16.4505 10.625 16.1641C11.1198 15.6432 11.9466 14.888 13.1055 13.8984C14.2773 12.9089 15.6445 11.9323 17.207 10.9688C18.7826 9.99219 20.3125 9.16536 21.7969 8.48828C23.2943 7.79818 24.6549 7.01042 25.8789 6.125C26.0221 6.00781 26.1328 5.96875 26.2109 6.00781C26.2891 6.04688 26.2956 6.13802 26.2305 6.28125C25.8789 6.91927 25.5013 7.55078 25.0977 8.17578C24.694 8.78776 24.2122 9.41276 23.6523 10.0508C23.2617 10.4935 22.8581 10.8451 22.4414 11.1055C22.0247 11.3529 21.4583 11.6654 20.7422 12.043C18.8411 12.9805 16.8945 13.9701 14.9023 15.0117C12.9102 16.0404 11.4844 17.0365 10.625 18ZM26.6992 30.8516C26.8034 31.2161 26.7969 31.5938 26.6797 31.9844C26.5755 32.375 26.3867 32.7786 26.1133 33.1953C25.8919 33.5339 25.6641 33.8464 25.4297 34.1328C25.2083 34.4323 24.9609 34.7122 24.6875 34.9727C24.5182 35.1549 24.3685 35.2852 24.2383 35.3633C24.1081 35.4414 23.9974 35.487 23.9062 35.5C23.8151 35.526 23.737 35.526 23.6719 35.5C23.6068 35.474 23.5482 35.4414 23.4961 35.4023C23.0404 35.0378 22.5911 34.6667 22.1484 34.2891C21.7188 33.9245 21.2435 33.5794 20.7227 33.2539C20.6576 33.1628 20.625 33.0911 20.625 33.0391C20.625 33 20.6576 32.9284 20.7227 32.8242L23.6914 28.2539C23.7826 28.1367 23.8672 28.0781 23.9453 28.0781C24.0365 28.0911 24.1341 28.1302 24.2383 28.1953C24.4987 28.3516 24.7591 28.5143 25.0195 28.6836C25.293 28.8659 25.5404 29.0677 25.7617 29.2891C25.9831 29.5104 26.1784 29.7448 26.3477 29.9922C26.5169 30.2526 26.6341 30.5391 26.6992 30.8516ZM20.7227 31.2227C20.7227 31.2747 20.7292 31.3138 20.7422 31.3398C20.7422 31.3789 20.7487 31.4115 20.7617 31.4375C20.7617 31.4635 20.7617 31.4896 20.7617 31.5156C20.7747 31.5547 20.7812 31.5872 20.7812 31.6133V31.8867C20.7812 31.9128 20.7747 31.9388 20.7617 31.9648C20.7617 32.0039 20.7617 32.0365 20.7617 32.0625L20.7031 32.2969C20.7031 32.3229 20.6966 32.3424 20.6836 32.3555C20.6836 32.3685 20.6836 32.388 20.6836 32.4141L20.6055 32.6484C20.5794 32.7005 20.5534 32.7526 20.5273 32.8047C20.5143 32.8568 20.4948 32.9089 20.4688 32.9609C20.4688 32.974 20.4622 32.9805 20.4492 32.9805C20.4492 32.9935 20.4492 33.0065 20.4492 33.0195L20.3516 33.1953C20.3255 33.2604 20.293 33.3125 20.2539 33.3516C20.2148 33.4036 20.1823 33.4557 20.1562 33.5078C20.1302 33.5339 20.1172 33.5534 20.1172 33.5664L19.8828 33.918L19.7852 34.0547C19.7591 34.0807 19.7331 34.1133 19.707 34.1523C19.694 34.1914 19.6745 34.224 19.6484 34.25C19.5964 34.3281 19.5508 34.3867 19.5117 34.4258L19.1992 34.8164C19.1732 34.8424 19.1602 34.862 19.1602 34.875C19.1341 34.901 19.1016 34.9336 19.0625 34.9727C19.0365 35.0117 19.0039 35.0443 18.9648 35.0703L18.8477 35.1875C18.8086 35.2526 18.7565 35.3047 18.6914 35.3438L18.4961 35.5391L18.3984 35.6172C18.2552 35.7344 18.1315 35.8125 18.0273 35.8516L17.9102 35.8906H17.7734C17.6693 35.8906 17.5781 35.8516 17.5 35.7734C17.2135 35.5521 16.9336 35.3242 16.6602 35.0898C16.3997 34.8555 16.1198 34.6276 15.8203 34.4062C15.7292 34.3281 15.638 34.2565 15.5469 34.1914C15.2734 33.9831 15.0065 33.7943 14.7461 33.625C14.7331 33.625 14.7266 33.6185 14.7266 33.6055C14.6615 33.5404 14.6289 33.4818 14.6289 33.4297C14.6289 33.3776 14.6615 33.2995 14.7266 33.1953L17.7148 28.6445C17.7148 28.6315 17.7214 28.6185 17.7344 28.6055C17.8255 28.4883 17.9232 28.4427 18.0273 28.4688C18.0273 28.4688 18.0404 28.4753 18.0664 28.4883C18.0794 28.4883 18.0924 28.4948 18.1055 28.5078L18.2422 28.5664C18.2682 28.5924 18.2943 28.6055 18.3203 28.6055C18.3464 28.6185 18.3724 28.638 18.3984 28.6641C18.4245 28.6771 18.4505 28.6901 18.4766 28.7031C18.5026 28.7161 18.5286 28.7357 18.5547 28.7617C18.6068 28.7878 18.6589 28.8203 18.7109 28.8594C18.7891 28.9115 18.8672 28.957 18.9453 28.9961C19.0234 29.0482 19.1016 29.1068 19.1797 29.1719L19.2578 29.2305C19.375 29.3216 19.4857 29.4128 19.5898 29.5039C19.694 29.5951 19.7982 29.6927 19.9023 29.7969L20.1367 30.0703L20.3125 30.3047C20.4036 30.4349 20.4753 30.5651 20.5273 30.6953C20.5534 30.7344 20.5794 30.793 20.6055 30.8711L20.6641 31.0469C20.6771 31.0599 20.6836 31.0729 20.6836 31.0859C20.6836 31.099 20.6901 31.1185 20.7031 31.1445C20.7031 31.1836 20.7096 31.2096 20.7227 31.2227Z" fill="#50A7BB"/>
<path d="M39.3164 22.8672C38.7565 26.3047 38.2487 28.8698 37.793 30.5625C37.3503 32.2552 36.9466 33.5508 36.582 34.4492C36.2174 35.3346 35.8138 36.0117 35.3711 36.4805C34.9414 36.9492 34.1406 37.3984 32.9688 37.8281C31.8099 38.2448 30.8398 38.5378 30.0586 38.707C29.2773 38.8763 28.7891 38.9674 28.5938 38.9805C28.3984 38.9674 28.2747 38.9349 28.2227 38.8828C28.1706 38.8177 28.2161 38.6745 28.3594 38.4531C28.6068 38.1016 29.1211 37.6198 29.9023 37.0078C30.6966 36.3958 31.6276 35.6341 32.6953 34.7227C33.776 33.8112 34.5833 33.0104 35.1172 32.3203C35.651 31.6172 36.1198 30.6667 36.5234 29.4688C36.9401 28.2578 37.3438 26.9948 37.7344 25.6797C38.125 24.3646 38.4049 23.4727 38.5742 23.0039C38.7565 22.5352 38.9388 22.3073 39.1211 22.3203C39.3294 22.3594 39.3945 22.5417 39.3164 22.8672Z" fill="#50A7BB"/>
<path d="M41.0938 32.8281C41.0938 32.2161 41.25 30.6211 41.5625 28.043C41.888 25.4648 42.1289 23.6224 42.2852 22.5156C42.4544 21.3958 42.6432 20.2109 42.8516 18.9609C43.0599 17.7109 43.2617 16.7018 43.457 15.9336C43.6784 15.2956 43.9128 14.651 44.1602 14C44.4206 13.349 44.6875 12.7044 44.9609 12.0664C45.1432 11.7799 45.2604 11.8255 45.3125 12.2031C44.987 14.3646 44.6875 16.6107 44.4141 18.9414C44.1406 21.2591 43.9518 22.9193 43.8477 23.9219C43.7565 24.9245 43.7109 25.5104 43.7109 25.6797C43.6589 26.487 43.6263 27.1185 43.6133 27.5742V28.8633C43.6133 30.5039 44.0495 31.6497 44.9219 32.3008C45.4557 32.6523 45.9831 32.7695 46.5039 32.6523C47.0378 32.5352 47.4414 32.2617 47.7148 31.832C48.0013 31.4023 48.2422 30.901 48.4375 30.3281C48.6328 29.7422 48.8216 29.4492 49.0039 29.4492C49.2122 29.4492 49.2969 29.6576 49.2578 30.0742C49.2448 30.7773 49.0234 31.9232 48.5938 33.5117C48.1771 35.0872 47.6042 36.3828 46.875 37.3984C46.1589 38.4141 45.2865 38.9479 44.2578 39C43.2031 38.9609 42.3828 38.3685 41.7969 37.2227C41.263 36.0898 41.0286 34.625 41.0938 32.8281ZM57.9297 3.21875C58.0339 3.58333 58.0273 3.96094 57.9102 4.35156C57.806 4.74219 57.6172 5.14583 57.3438 5.5625C57.1224 5.90104 56.8945 6.22005 56.6602 6.51953C56.4388 6.80599 56.1914 7.07943 55.918 7.33984C55.7487 7.52214 55.599 7.65234 55.4688 7.73047C55.3385 7.80859 55.2279 7.86068 55.1367 7.88672C55.0456 7.89974 54.9674 7.89323 54.9023 7.86719C54.8372 7.84115 54.7786 7.80859 54.7266 7.76953C54.2708 7.40495 53.8216 7.04036 53.3789 6.67578C52.9492 6.29818 52.474 5.94661 51.9531 5.62109C51.888 5.52995 51.8555 5.46484 51.8555 5.42578C51.8555 5.3737 51.888 5.29557 51.9531 5.19141L54.9219 0.621094C55.013 0.503906 55.0977 0.451823 55.1758 0.464844C55.2669 0.464844 55.3646 0.497396 55.4688 0.5625C55.7292 0.71875 55.9896 0.888021 56.25 1.07031C56.5234 1.23958 56.7708 1.4349 56.9922 1.65625C57.2135 1.8776 57.4089 2.11849 57.5781 2.37891C57.7474 2.6263 57.8646 2.90625 57.9297 3.21875ZM51.9531 3.58984C51.9531 3.64193 51.9596 3.68099 51.9727 3.70703C51.9727 3.74609 51.9792 3.77865 51.9922 3.80469C51.9922 3.83073 51.9922 3.86328 51.9922 3.90234C52.0052 3.92839 52.0117 3.95443 52.0117 3.98047V4.25391C52.0117 4.27995 52.0052 4.3125 51.9922 4.35156C51.9922 4.3776 51.9922 4.40365 51.9922 4.42969L51.9336 4.66406C51.9336 4.6901 51.9271 4.70964 51.9141 4.72266C51.9141 4.73568 51.9141 4.75521 51.9141 4.78125L51.8359 5.01562C51.8099 5.06771 51.7839 5.11979 51.7578 5.17188C51.7448 5.22396 51.7253 5.27604 51.6992 5.32812C51.6992 5.34115 51.6927 5.35417 51.6797 5.36719C51.6797 5.36719 51.6797 5.3737 51.6797 5.38672L51.582 5.5625C51.556 5.6276 51.5234 5.6862 51.4844 5.73828C51.4453 5.77734 51.4128 5.82292 51.3867 5.875C51.3607 5.90104 51.3477 5.92057 51.3477 5.93359L51.1133 6.28516L51.0156 6.42188C50.9896 6.44792 50.9635 6.48047 50.9375 6.51953C50.9245 6.55859 50.9049 6.59115 50.8789 6.61719C50.8268 6.69531 50.7812 6.75391 50.7422 6.79297L50.4297 7.18359C50.4036 7.20964 50.3906 7.22917 50.3906 7.24219C50.3646 7.26823 50.332 7.30078 50.293 7.33984C50.2669 7.37891 50.2344 7.41146 50.1953 7.4375L50.0781 7.55469C50.0391 7.61979 49.987 7.67188 49.9219 7.71094L49.7266 7.90625L49.6289 7.98438C49.4857 8.10156 49.362 8.17969 49.2578 8.21875L49.1406 8.25781H49.0039C48.8997 8.25781 48.8086 8.21875 48.7305 8.14062C48.444 7.91927 48.1641 7.69141 47.8906 7.45703C47.6302 7.22266 47.3503 6.99479 47.0508 6.77344C46.9596 6.69531 46.8685 6.6237 46.7773 6.55859C46.5039 6.35026 46.237 6.16146 45.9766 5.99219C45.9635 5.99219 45.957 5.98568 45.957 5.97266C45.8919 5.90755 45.8594 5.84896 45.8594 5.79688C45.8594 5.74479 45.8919 5.66667 45.957 5.5625L48.9453 1.01172C48.9453 0.998698 48.9518 0.985677 48.9648 0.972656C49.056 0.855469 49.1536 0.809896 49.2578 0.835938C49.2578 0.835938 49.2708 0.842448 49.2969 0.855469C49.3099 0.855469 49.3229 0.861979 49.3359 0.875L49.4727 0.933594C49.4987 0.959635 49.5247 0.979167 49.5508 0.992188C49.5768 0.992188 49.6029 1.00521 49.6289 1.03125C49.6549 1.04427 49.681 1.05729 49.707 1.07031C49.7331 1.08333 49.7591 1.10286 49.7852 1.12891C49.8372 1.15495 49.8893 1.1875 49.9414 1.22656C50.0195 1.27865 50.0977 1.33073 50.1758 1.38281C50.2539 1.42188 50.332 1.47396 50.4102 1.53906L50.4883 1.59766C50.6966 1.75391 50.9115 1.94271 51.1328 2.16406L51.3672 2.4375L51.543 2.67188C51.6341 2.80208 51.7057 2.93229 51.7578 3.0625C51.7839 3.10156 51.8099 3.16016 51.8359 3.23828L51.8945 3.41406C51.9076 3.42708 51.9141 3.4401 51.9141 3.45312C51.9141 3.46615 51.9206 3.48568 51.9336 3.51172C51.9336 3.55078 51.9401 3.57682 51.9531 3.58984Z" fill="#50A7BB"/>
</svg>
