<svg width="96" height="74" viewBox="0 0 96 74" fill="none" xmlns="http://www.w3.org/2000/svg">
<path d="M37.0312 45.1875C37.0833 45.3307 37.0508 45.6172 36.9336 46.0469C36.7513 46.6589 36.4388 47.4076 35.9961 48.293C35.5534 49.1654 35.0521 49.9922 34.4922 50.7734C33.9323 51.5547 33.2552 52.2318 32.4609 52.8047C31.3281 53.599 30.0911 54.2826 28.75 54.8555C27.4089 55.4284 25.8008 55.9688 23.9258 56.4766C22.0508 56.9714 20.0065 57.349 17.793 57.6094C15.5924 57.8698 13.457 58 11.3867 58C8.99089 58 7.15495 57.9023 5.87891 57.707C3.79557 57.3815 2.3112 56.7565 1.42578 55.832C0.63151 55.1159 0.234375 54.1393 0.234375 52.9023C0.234375 52.4206 0.279948 51.7305 0.371094 50.832C0.46224 49.9336 0.585938 49.0352 0.742188 48.1367C0.807292 47.7591 0.865885 47.4206 0.917969 47.1211C0.957031 46.9128 1.00911 46.7435 1.07422 46.6133C1.13932 46.4831 1.21094 46.4115 1.28906 46.3984C1.36719 46.3724 1.4388 46.4245 1.50391 46.5547C1.58203 46.6719 1.65365 46.8802 1.71875 47.1797C1.77083 47.5052 1.84245 47.8438 1.93359 48.1953C2.14193 49.0417 2.70833 49.6732 3.63281 50.0898C5.97656 51.0924 9.55729 51.6133 14.375 51.6523C16.0547 51.6523 17.9362 51.5742 20.0195 51.418C22.1029 51.2617 24.1797 50.9557 26.25 50.5C28.3333 50.0312 30.0846 49.4974 31.5039 48.8984C32.9232 48.2865 33.9323 47.7786 34.5312 47.375C35.1302 46.9583 35.6641 46.457 36.1328 45.8711C36.4844 45.4023 36.6927 45.1484 36.7578 45.1094C36.7839 45.0833 36.8294 45.0768 36.8945 45.0898C36.9596 45.0898 37.0052 45.1224 37.0312 45.1875ZM22.9688 35.5195C23.0729 35.8841 23.0664 36.2617 22.9492 36.6523C22.8451 37.043 22.6562 37.4466 22.3828 37.8633C22.1615 38.2018 21.9336 38.5208 21.6992 38.8203C21.4779 39.1068 21.2305 39.3802 20.957 39.6406C20.7878 39.8229 20.638 39.9531 20.5078 40.0312C20.3776 40.1094 20.2669 40.1615 20.1758 40.1875C20.0846 40.2005 20.0065 40.194 19.9414 40.168C19.8763 40.1419 19.8177 40.1094 19.7656 40.0703C19.3099 39.7057 18.8607 39.3411 18.418 38.9766C17.9883 38.599 17.513 38.2474 16.9922 37.9219C16.9271 37.8307 16.8945 37.7656 16.8945 37.7266C16.8945 37.6745 16.9271 37.5964 16.9922 37.4922L19.9609 32.9219C20.0521 32.8047 20.1367 32.7526 20.2148 32.7656C20.306 32.7656 20.4036 32.7982 20.5078 32.8633C20.7682 33.0195 21.0286 33.1888 21.2891 33.3711C21.5625 33.5404 21.8099 33.7357 22.0312 33.957C22.2526 34.1784 22.4479 34.4193 22.6172 34.6797C22.7865 34.9271 22.9036 35.207 22.9688 35.5195ZM16.9922 35.8906C16.9922 35.9427 16.9987 35.9818 17.0117 36.0078C17.0117 36.0469 17.0182 36.0794 17.0312 36.1055C17.0312 36.1315 17.0312 36.1641 17.0312 36.2031C17.0443 36.2292 17.0508 36.2552 17.0508 36.2812V36.5547C17.0508 36.5807 17.0443 36.6133 17.0312 36.6523C17.0312 36.6784 17.0312 36.7044 17.0312 36.7305L16.9727 36.9648C16.9727 36.9909 16.9661 37.0104 16.9531 37.0234C16.9531 37.0365 16.9531 37.056 16.9531 37.082L16.875 37.3164C16.849 37.3685 16.8229 37.4206 16.7969 37.4727C16.7839 37.5247 16.7643 37.5768 16.7383 37.6289C16.7383 37.6419 16.7318 37.6549 16.7188 37.668C16.7188 37.668 16.7188 37.6745 16.7188 37.6875L16.6211 37.8633C16.5951 37.9284 16.5625 37.987 16.5234 38.0391C16.4844 38.0781 16.4518 38.1237 16.4258 38.1758C16.3997 38.2018 16.3867 38.2214 16.3867 38.2344L16.1523 38.5859L16.0547 38.7227C16.0286 38.7487 16.0026 38.7812 15.9766 38.8203C15.9635 38.8594 15.944 38.8919 15.918 38.918C15.8659 38.9961 15.8203 39.0547 15.7812 39.0938L15.4688 39.4844C15.4427 39.5104 15.4297 39.5299 15.4297 39.543C15.4036 39.569 15.3711 39.6016 15.332 39.6406C15.306 39.6797 15.2734 39.7122 15.2344 39.7383L15.1172 39.8555C15.0781 39.9206 15.026 39.9727 14.9609 40.0117L14.7656 40.207L14.668 40.2852C14.5247 40.4023 14.401 40.4805 14.2969 40.5195L14.1797 40.5586H14.043C13.9388 40.5586 13.8477 40.5195 13.7695 40.4414C13.4831 40.2201 13.2031 39.9922 12.9297 39.7578C12.6693 39.5234 12.3893 39.2956 12.0898 39.0742C11.9987 38.9961 11.9076 38.9245 11.8164 38.8594C11.543 38.651 11.276 38.4622 11.0156 38.293C11.0026 38.293 10.9961 38.2865 10.9961 38.2734C10.931 38.2083 10.8984 38.1497 10.8984 38.0977C10.8984 38.0456 10.931 37.9674 10.9961 37.8633L13.9844 33.3125C13.9844 33.2995 13.9909 33.2865 14.0039 33.2734C14.0951 33.1562 14.1927 33.1107 14.2969 33.1367C14.2969 33.1367 14.3099 33.1432 14.3359 33.1562C14.349 33.1562 14.362 33.1628 14.375 33.1758L14.5117 33.2344C14.5378 33.2604 14.5638 33.2799 14.5898 33.293C14.6159 33.293 14.6419 33.306 14.668 33.332C14.694 33.3451 14.7201 33.3581 14.7461 33.3711C14.7721 33.3841 14.7982 33.4036 14.8242 33.4297C14.8763 33.4557 14.9284 33.4883 14.9805 33.5273C15.0586 33.5794 15.1367 33.6315 15.2148 33.6836C15.293 33.7227 15.3711 33.7747 15.4492 33.8398L15.5273 33.8984C15.6445 33.9896 15.7552 34.0807 15.8594 34.1719C15.9635 34.263 16.0677 34.3607 16.1719 34.4648L16.4062 34.7383L16.582 34.9727C16.6732 35.1029 16.7448 35.2331 16.7969 35.3633C16.8229 35.4023 16.849 35.4609 16.875 35.5391L16.9336 35.7148C16.9466 35.7279 16.9531 35.7409 16.9531 35.7539C16.9531 35.7669 16.9596 35.7865 16.9727 35.8125C16.9727 35.8516 16.9792 35.8776 16.9922 35.8906Z" fill="#50A7BB"/>
<path d="M49.6094 44.6016C49.5833 45.3698 49.4531 46.4049 49.2188 47.707C48.9844 49.0091 48.776 49.9336 48.5938 50.4805C48.4245 51.0273 48.1576 51.6979 47.793 52.4922C47.4414 53.2734 46.9987 54.0807 46.4648 54.9141C45.931 55.7344 45.2409 56.4635 44.3945 57.1016C43.5612 57.7396 42.6628 58.0586 41.6992 58.0586C41.1914 58.0586 40.7617 57.9219 40.4102 57.6484C40.0716 57.362 39.7656 56.9648 39.4922 56.457C39.2708 56.0143 39.1471 55.5586 39.1211 55.0898C39.1081 54.9727 39.1211 54.901 39.1602 54.875C39.2122 54.849 39.2643 54.8294 39.3164 54.8164C39.681 54.7122 39.9674 54.4453 40.1758 54.0156C40.4232 53.5078 40.612 52.974 40.7422 52.4141C40.8724 51.8542 40.9635 51.1836 41.0156 50.4023C41.0677 49.6211 41.0938 48.9505 41.0938 48.3906V46.6914C41.0938 46.1055 41.1003 45.4935 41.1133 44.8555C41.1523 43.1888 41.3411 41.3659 41.6797 39.3867C41.9141 38.0326 42.526 36.1901 43.5156 33.8594C43.6719 33.5339 43.7956 33.3776 43.8867 33.3906C43.9909 33.4036 44.0299 33.4948 44.0039 33.6641C43.5612 35.1745 43.3203 37.6029 43.2812 40.9492C43.2552 44.2956 43.1901 46.5156 43.0859 47.6094C42.9948 48.6901 42.793 49.7318 42.4805 50.7344C42.0378 52.2188 41.4388 53.5404 40.6836 54.6992C41.2305 54.6992 41.7643 54.6667 42.2852 54.6016C42.819 54.5365 43.3203 54.4128 43.7891 54.2305C44.2708 54.0352 44.7135 53.7617 45.1172 53.4102C45.5208 53.0586 45.8659 52.5833 46.1523 51.9844C46.4518 51.3854 46.6797 50.6562 46.8359 49.7969C47.0052 48.9245 47.0964 47.8763 47.1094 46.6523C47.1094 45.7539 47.1029 44.6146 47.0898 43.2344C47.0768 41.8411 47.1159 40.5651 47.207 39.4062C47.2982 38.2474 47.6302 36.8477 48.2031 35.207C48.776 33.5664 49.3229 32.1211 49.8438 30.8711C49.9349 30.6758 50.0065 30.6042 50.0586 30.6562C50.1237 30.7083 50.1302 31.0013 50.0781 31.5352C49.7917 33.7357 49.668 35.181 49.707 35.8711L49.6094 44.6016Z" fill="#50A7BB"/>
<path d="M59.4531 47.4141C58.8672 47.3099 58.4245 47.3099 58.125 47.4141C57.3307 47.7266 56.4323 48.651 55.4297 50.1875C54.1797 52.0625 52.8776 53 51.5234 53C50.0781 52.987 48.9844 52.362 48.2422 51.125C47.5 49.875 47.1289 48.3841 47.1289 46.6523C47.4674 45.5195 47.8385 44.5365 48.2422 43.7031C48.6328 42.8698 49.1016 42.2969 49.6484 41.9844C49.5964 45.1354 50.8789 46.7109 53.4961 46.7109C54.5638 46.724 55.4883 46.3919 56.2695 45.7148C57.0638 45.0247 57.6497 44.4974 58.0273 44.1328C58.5612 43.7552 59.0365 43.5729 59.4531 43.5859C59.7396 43.8854 59.8893 44.4844 59.9023 45.3828C59.9154 46.2682 59.7656 46.9453 59.4531 47.4141ZM60.2734 68.7812C60.3776 69.1458 60.3711 69.5234 60.2539 69.9141C60.1497 70.3047 59.9609 70.7083 59.6875 71.125C59.4661 71.4635 59.2383 71.776 59.0039 72.0625C58.7826 72.362 58.5352 72.6419 58.2617 72.9023C58.0924 73.0846 57.9427 73.2148 57.8125 73.293C57.6823 73.3711 57.5716 73.4167 57.4805 73.4297C57.3893 73.4557 57.3112 73.4557 57.2461 73.4297C57.181 73.4036 57.1224 73.3711 57.0703 73.332C56.6146 72.9674 56.1654 72.5964 55.7227 72.2188C55.293 71.8542 54.8177 71.5091 54.2969 71.1836C54.2318 71.0924 54.1992 71.0208 54.1992 70.9688C54.1992 70.9297 54.2318 70.8581 54.2969 70.7539L57.2656 66.1836C57.3568 66.0664 57.4414 66.0078 57.5195 66.0078C57.6107 66.0208 57.7083 66.0599 57.8125 66.125C58.0729 66.2812 58.3333 66.444 58.5938 66.6133C58.8672 66.7956 59.1146 66.9974 59.3359 67.2188C59.5573 67.4401 59.7526 67.6745 59.9219 67.9219C60.0911 68.1823 60.2083 68.4688 60.2734 68.7812ZM54.2969 69.1523C54.2969 69.2044 54.3034 69.2435 54.3164 69.2695C54.3164 69.3086 54.3229 69.3411 54.3359 69.3672C54.3359 69.3932 54.3359 69.4193 54.3359 69.4453C54.349 69.4844 54.3555 69.5169 54.3555 69.543V69.8164C54.3555 69.8424 54.349 69.8685 54.3359 69.8945C54.3359 69.9336 54.3359 69.9661 54.3359 69.9922L54.2773 70.2266C54.2773 70.2526 54.2708 70.2721 54.2578 70.2852C54.2578 70.2982 54.2578 70.3177 54.2578 70.3438L54.1797 70.5781C54.1536 70.6302 54.1276 70.6823 54.1016 70.7344C54.0885 70.7865 54.069 70.8385 54.043 70.8906C54.043 70.9036 54.0365 70.9102 54.0234 70.9102C54.0234 70.9232 54.0234 70.9362 54.0234 70.9492L53.9258 71.125C53.8997 71.1901 53.8672 71.2422 53.8281 71.2812C53.7891 71.3333 53.7565 71.3854 53.7305 71.4375C53.7044 71.4635 53.6914 71.4831 53.6914 71.4961L53.457 71.8477L53.3594 71.9844C53.3333 72.0104 53.3073 72.043 53.2812 72.082C53.2682 72.1211 53.2487 72.1536 53.2227 72.1797C53.1706 72.2578 53.125 72.3164 53.0859 72.3555L52.7734 72.7461C52.7474 72.7721 52.7344 72.7917 52.7344 72.8047C52.7083 72.8307 52.6758 72.8633 52.6367 72.9023C52.6107 72.9414 52.5781 72.974 52.5391 73L52.4219 73.1172C52.3828 73.1823 52.3307 73.2344 52.2656 73.2734L52.0703 73.4688L51.9727 73.5469C51.8294 73.6641 51.7057 73.7422 51.6016 73.7812L51.4844 73.8203H51.3477C51.2435 73.8203 51.1523 73.7812 51.0742 73.7031C50.7878 73.4818 50.5078 73.2539 50.2344 73.0195C49.974 72.7852 49.694 72.5573 49.3945 72.3359C49.3034 72.2578 49.2122 72.1862 49.1211 72.1211C48.8477 71.9128 48.5807 71.724 48.3203 71.5547C48.3073 71.5547 48.3008 71.5482 48.3008 71.5352C48.2357 71.4701 48.2031 71.4115 48.2031 71.3594C48.2031 71.3073 48.2357 71.2292 48.3008 71.125L51.2891 66.5742C51.2891 66.5612 51.2956 66.5482 51.3086 66.5352C51.3997 66.418 51.4974 66.3724 51.6016 66.3984C51.6016 66.3984 51.6146 66.4049 51.6406 66.418C51.6536 66.418 51.6667 66.4245 51.6797 66.4375L51.8164 66.4961C51.8424 66.5221 51.8685 66.5352 51.8945 66.5352C51.9206 66.5482 51.9466 66.5677 51.9727 66.5938C51.9987 66.6068 52.0247 66.6198 52.0508 66.6328C52.0768 66.6458 52.1029 66.6654 52.1289 66.6914C52.181 66.7174 52.2331 66.75 52.2852 66.7891C52.3633 66.8411 52.4414 66.8867 52.5195 66.9258C52.5977 66.9779 52.6758 67.0365 52.7539 67.1016L52.832 67.1602C52.9492 67.2513 53.0599 67.3424 53.1641 67.4336C53.2682 67.5247 53.3724 67.6224 53.4766 67.7266L53.7109 68L53.8867 68.2344C53.9779 68.3646 54.0495 68.4948 54.1016 68.625C54.1276 68.6641 54.1536 68.7227 54.1797 68.8008L54.2383 68.9766C54.2513 68.9896 54.2578 69.0026 54.2578 69.0156C54.2578 69.0286 54.2643 69.0482 54.2773 69.0742C54.2773 69.1133 54.2839 69.1393 54.2969 69.1523Z" fill="#50A7BB"/>
<path d="M75.2148 35.5078C75.2148 37.0312 74.7331 38.6133 73.7695 40.2539C72.819 41.9336 71.6602 43.2357 70.293 44.1602C69.7852 44.5508 69.1862 44.8242 68.4961 44.9805C67.7148 45.1888 66.9727 45.293 66.2695 45.293C65.3711 45.293 64.7005 45.1562 64.2578 44.8828C63.8672 44.6745 63.5938 44.4531 63.4375 44.2188C63.2812 44.0234 63.1706 43.9258 63.1055 43.9258C62.9753 43.9258 62.7799 44.0885 62.5195 44.4141C62.3503 44.6484 61.9206 45.2539 61.2305 46.2305C60.9049 46.6992 60.5859 46.9531 60.2734 46.9922C59.9349 47.0703 59.6615 47.0638 59.4531 46.9727C59.2839 46.8685 59.1471 46.6602 59.043 46.3477C58.9258 46.0482 58.8607 45.7031 58.8477 45.3125C58.8216 44.9349 58.8542 44.5508 58.9453 44.1602C59.0365 43.7565 59.2057 43.418 59.4531 43.1445C59.6094 43.1445 59.8503 43.1836 60.1758 43.2617C60.5143 43.3268 60.7682 43.3919 60.9375 43.457C61.4323 43.6914 61.9987 43.2487 62.6367 42.1289C63.3008 41.0352 63.7695 40.4883 64.043 40.4883C64.1602 40.4883 64.388 40.5469 64.7266 40.6641C65.0391 40.7812 65.3581 40.8398 65.6836 40.8398C65.944 40.8398 66.237 40.6055 66.5625 40.1367C67.8385 38.3659 68.6784 37.207 69.082 36.6602C69.7721 35.6966 70.4883 34.9023 71.2305 34.2773C71.9336 33.6784 72.5586 33.3789 73.1055 33.3789C73.7044 33.3789 74.1992 33.5742 74.5898 33.9648C75.0065 34.3685 75.2148 34.8828 75.2148 35.5078ZM73.75 37.2656C73.6328 37.1094 73.4115 36.9336 73.0859 36.7383C72.7604 36.5299 72.3242 36.4453 71.7773 36.4844C70.9831 36.4844 70.0846 37.1484 69.082 38.4766C68.7956 38.8802 68.4961 39.2773 68.1836 39.668C67.8841 40.0586 67.5911 40.4492 67.3047 40.8398C67.7344 40.9049 68.3398 40.8594 69.1211 40.7031C69.9023 40.5469 70.8268 40.1432 71.8945 39.4922C72.9753 38.8281 73.5938 38.0859 73.75 37.2656Z" fill="#50A7BB"/>
<path d="M79.3164 31C78.9909 31.2344 78.8151 31.4297 78.7891 31.5859C78.9844 31.6901 79.1732 31.7552 79.3555 31.7812C79.5508 31.8073 79.8633 31.8203 80.293 31.8203C80.6966 31.8203 81.1654 31.8073 81.6992 31.7812C82.2461 31.7682 82.7995 31.7487 83.3594 31.7227C83.9193 31.6966 84.4531 31.6576 84.9609 31.6055C85.4688 31.5664 85.8919 31.5208 86.2305 31.4688C86.6471 31.4557 86.8424 31.612 86.8164 31.9375C86.7253 32.4323 86.4648 32.9401 86.0352 33.4609C85.6185 33.9948 85.3581 34.3203 85.2539 34.4375C85.1497 34.5547 84.8698 34.75 84.4141 35.0234C84.1797 35.1536 83.75 35.5378 83.125 36.1758C82.5 36.8268 81.9531 37.3932 81.4844 37.875C81.0156 38.3568 80.6576 38.7148 80.4102 38.9492C80.1758 39.1966 79.8112 39.5482 79.3164 40.0039C78.8346 40.4727 78.3789 40.8438 77.9492 41.1172C77.0247 41.7422 76.0417 42.2891 75 42.7578C73.9583 43.2396 72.8581 43.6497 71.6992 43.9883C70.5534 44.3268 69.7917 44.5482 69.4141 44.6523C68.6719 44.8607 68.2227 44.9648 68.0664 44.9648C67.5846 45.0299 67.3438 44.9648 67.3438 44.7695C67.3438 44.5352 67.6432 44.2487 68.2422 43.9102C68.8542 43.5716 69.3359 43.3372 69.6875 43.207C73.0078 41.9961 75.638 40.6289 77.5781 39.1055C79.5312 37.5951 81.1979 35.987 82.5781 34.2812L78.4961 34.1641L77.5391 34.1055C77.1224 34.1055 76.8099 34.0078 76.6016 33.8125C76.3802 33.6172 76.3477 33.3372 76.5039 32.9727C76.6211 32.6732 76.7904 32.3411 77.0117 31.9766L77.1289 31.7617C77.4023 31.332 77.6497 30.974 77.8711 30.6875C78.0924 30.401 78.2878 30.1602 78.457 29.9648C78.6393 29.7695 78.7956 29.6133 78.9258 29.4961C79.069 29.3789 79.1992 29.2747 79.3164 29.1836C79.4076 29.3268 79.4727 29.4896 79.5117 29.6719C79.5638 29.8542 79.5898 30.0365 79.5898 30.2188C79.5898 30.388 79.5638 30.5508 79.5117 30.707C79.4596 30.8503 79.3945 30.9479 79.3164 31Z" fill="#50A7BB"/>
<path d="M79.3359 31C79.2318 30.7656 79.1602 30.4727 79.1211 30.1211C79.082 29.7695 79.1536 29.4505 79.3359 29.1641C79.8307 28.6432 80.6576 27.888 81.8164 26.8984C82.9883 25.9089 84.3555 24.9323 85.918 23.9688C87.4935 22.9922 89.0234 22.1654 90.5078 21.4883C92.0052 20.7982 93.3659 20.0104 94.5898 19.125C94.7331 19.0078 94.8438 18.9688 94.9219 19.0078C95 19.0469 95.0065 19.138 94.9414 19.2812C94.5898 19.9193 94.2122 20.5508 93.8086 21.1758C93.4049 21.7878 92.9232 22.4128 92.3633 23.0508C91.9727 23.4935 91.569 23.8451 91.1523 24.1055C90.7357 24.3529 90.1693 24.6654 89.4531 25.043C87.5521 25.9805 85.6055 26.9701 83.6133 28.0117C81.6211 29.0404 80.1953 30.0365 79.3359 31ZM95.4883 2.93359C95.5924 3.29818 95.5859 3.67578 95.4688 4.06641C95.3646 4.45703 95.1758 4.86068 94.9023 5.27734C94.681 5.61589 94.4531 5.9349 94.2188 6.23438C93.9974 6.52083 93.75 6.79427 93.4766 7.05469C93.3073 7.23698 93.1576 7.36719 93.0273 7.44531C92.8971 7.52344 92.7865 7.57552 92.6953 7.60156C92.6042 7.61458 92.526 7.60807 92.4609 7.58203C92.3958 7.55599 92.3372 7.52344 92.2852 7.48438C91.8294 7.11979 91.3802 6.75521 90.9375 6.39062C90.5078 6.01302 90.0326 5.66146 89.5117 5.33594C89.4466 5.24479 89.4141 5.17969 89.4141 5.14062C89.4141 5.08854 89.4466 5.01042 89.5117 4.90625L92.4805 0.335938C92.5716 0.21875 92.6562 0.166667 92.7344 0.179688C92.8255 0.179688 92.9232 0.21224 93.0273 0.277344C93.2878 0.433594 93.5482 0.602865 93.8086 0.785156C94.082 0.954427 94.3294 1.14974 94.5508 1.37109C94.7721 1.59245 94.9674 1.83333 95.1367 2.09375C95.306 2.34115 95.4232 2.62109 95.4883 2.93359ZM89.5117 3.30469C89.5117 3.35677 89.5182 3.39583 89.5312 3.42188C89.5312 3.46094 89.5378 3.49349 89.5508 3.51953C89.5508 3.54557 89.5508 3.57812 89.5508 3.61719C89.5638 3.64323 89.5703 3.66927 89.5703 3.69531V3.96875C89.5703 3.99479 89.5638 4.02734 89.5508 4.06641C89.5508 4.09245 89.5508 4.11849 89.5508 4.14453L89.4922 4.37891C89.4922 4.40495 89.4857 4.42448 89.4727 4.4375C89.4727 4.45052 89.4727 4.47005 89.4727 4.49609L89.3945 4.73047C89.3685 4.78255 89.3424 4.83464 89.3164 4.88672C89.3034 4.9388 89.2839 4.99089 89.2578 5.04297C89.2578 5.05599 89.2513 5.06901 89.2383 5.08203C89.2383 5.08203 89.2383 5.08854 89.2383 5.10156L89.1406 5.27734C89.1146 5.34245 89.082 5.40104 89.043 5.45312C89.0039 5.49219 88.9714 5.53776 88.9453 5.58984C88.9193 5.61589 88.9062 5.63542 88.9062 5.64844L88.6719 6L88.5742 6.13672C88.5482 6.16276 88.5221 6.19531 88.4961 6.23438C88.4831 6.27344 88.4635 6.30599 88.4375 6.33203C88.3854 6.41016 88.3398 6.46875 88.3008 6.50781L87.9883 6.89844C87.9622 6.92448 87.9492 6.94401 87.9492 6.95703C87.9232 6.98307 87.8906 7.01562 87.8516 7.05469C87.8255 7.09375 87.793 7.1263 87.7539 7.15234L87.6367 7.26953C87.5977 7.33464 87.5456 7.38672 87.4805 7.42578L87.2852 7.62109L87.1875 7.69922C87.0443 7.81641 86.9206 7.89453 86.8164 7.93359L86.6992 7.97266H86.5625C86.4583 7.97266 86.3672 7.93359 86.2891 7.85547C86.0026 7.63411 85.7227 7.40625 85.4492 7.17188C85.1888 6.9375 84.9089 6.70964 84.6094 6.48828C84.5182 6.41016 84.4271 6.33854 84.3359 6.27344C84.0625 6.0651 83.7956 5.8763 83.5352 5.70703C83.5221 5.70703 83.5156 5.70052 83.5156 5.6875C83.4505 5.6224 83.418 5.5638 83.418 5.51172C83.418 5.45964 83.4505 5.38151 83.5156 5.27734L86.5039 0.726562C86.5039 0.713542 86.5104 0.700521 86.5234 0.6875C86.6146 0.570312 86.7122 0.52474 86.8164 0.550781C86.8164 0.550781 86.8294 0.557292 86.8555 0.570312C86.8685 0.570312 86.8815 0.576823 86.8945 0.589844L87.0312 0.648438C87.0573 0.674479 87.0833 0.69401 87.1094 0.707031C87.1354 0.707031 87.1615 0.720052 87.1875 0.746094C87.2135 0.759115 87.2396 0.772135 87.2656 0.785156C87.2917 0.798177 87.3177 0.817708 87.3438 0.84375C87.3958 0.869792 87.4479 0.902344 87.5 0.941406C87.5781 0.99349 87.6562 1.04557 87.7344 1.09766C87.8125 1.13672 87.8906 1.1888 87.9688 1.25391L88.0469 1.3125C88.2552 1.46875 88.4701 1.65755 88.6914 1.87891L88.9258 2.15234L89.1016 2.38672C89.1927 2.51693 89.2643 2.64714 89.3164 2.77734C89.3424 2.81641 89.3685 2.875 89.3945 2.95312L89.4531 3.12891C89.4661 3.14193 89.4727 3.15495 89.4727 3.16797C89.4727 3.18099 89.4792 3.20052 89.4922 3.22656C89.4922 3.26562 89.4987 3.29167 89.5117 3.30469Z" fill="#50A7BB"/>
</svg>
