<svg width="42" height="43" viewBox="0 0 42 43" fill="none" xmlns="http://www.w3.org/2000/svg">
<path d="M5.35547 41C3.74089 40.8698 2.25 41.2214 0.882817 42.0547C0.726567 42.1719 0.583338 42.1784 0.45313 42.0742C0.3099 41.9701 0.342452 41.6706 0.550786 41.1758C0.811202 40.5898 1.38412 39.776 2.26954 38.7344C3.15495 37.6927 4.1836 36.8398 5.35547 36.1758C6.31901 37.7773 6.31901 39.3854 5.35547 41Z" fill="#50A7BB"/>
<path d="M17.4063 37C16.8854 36.9219 16.5273 36.9023 16.332 36.9414C15.5638 37.0846 14.7826 37.5664 13.9883 38.3867C13.2461 39.168 12.3477 39.9232 11.293 40.6523C10.2513 41.3815 9.38542 41.7721 8.69532 41.8242C8.01823 41.8893 7.41276 41.8568 6.87891 41.7266C6.34506 41.6094 5.84375 41.4922 5.375 41.375C4.9323 40.5547 4.70443 39.7474 4.69141 38.9531C4.67839 38.1589 4.90625 37.3516 5.375 36.5312C6.42969 35.9844 7.29558 35.7109 7.97266 35.7109C8.66276 35.6979 9.28777 35.8086 9.84766 36.043C10.3945 36.2773 10.9349 36.3945 11.4688 36.3945C12.3412 36.3945 12.9466 36.3034 13.2852 36.1211C13.6367 35.9518 14.0534 35.6523 14.5352 35.2227C14.7695 35.0273 14.9909 34.8255 15.1992 34.6172C15.4206 34.3958 15.7201 34.1224 16.0977 33.7969C16.4883 33.4714 16.9245 33.263 17.4063 33.1719C17.5234 33.6927 17.6341 34.1094 17.7383 34.4219C17.8294 34.7995 17.875 35.0924 17.875 35.3008C17.875 35.6784 17.7773 36.1016 17.582 36.5703C17.582 36.6615 17.5234 36.8047 17.4063 37ZM15.6875 18.2695C15.7917 18.6341 15.7852 19.0117 15.668 19.4023C15.5638 19.793 15.375 20.1966 15.1016 20.6133C14.8802 20.9518 14.6523 21.2708 14.418 21.5703C14.1966 21.8568 13.9492 22.1302 13.6758 22.3906C13.5065 22.5729 13.3568 22.7031 13.2266 22.7812C13.0964 22.8594 12.9857 22.9115 12.8945 22.9375C12.8034 22.9505 12.7253 22.944 12.6602 22.918C12.5951 22.8919 12.5365 22.8594 12.4844 22.8203C12.0287 22.4557 11.5794 22.0911 11.1367 21.7266C10.707 21.349 10.2318 20.9974 9.71094 20.6719C9.64584 20.5807 9.61329 20.5156 9.61329 20.4766C9.61329 20.4245 9.64584 20.3464 9.71094 20.2422L12.6797 15.6719C12.7708 15.5547 12.8555 15.5026 12.9336 15.5156C13.0247 15.5156 13.1224 15.5482 13.2266 15.6133C13.487 15.7695 13.7474 15.9388 14.0078 16.1211C14.2813 16.2904 14.5287 16.4857 14.75 16.707C14.9714 16.9284 15.1667 17.1693 15.3359 17.4297C15.5052 17.6771 15.6224 17.957 15.6875 18.2695ZM9.71094 18.6406C9.71094 18.6927 9.71745 18.7318 9.73047 18.7578C9.73047 18.7969 9.73698 18.8294 9.75 18.8555C9.75 18.8815 9.75 18.9141 9.75 18.9531C9.76303 18.9792 9.76954 19.0052 9.76954 19.0312V19.3047C9.76954 19.3307 9.76303 19.3633 9.75 19.4023C9.75 19.4284 9.75 19.4544 9.75 19.4805L9.69141 19.7148C9.69141 19.7409 9.6849 19.7604 9.67188 19.7734C9.67188 19.7865 9.67188 19.806 9.67188 19.832L9.59375 20.0664C9.56771 20.1185 9.54167 20.1706 9.51563 20.2227C9.50261 20.2747 9.48308 20.3268 9.45704 20.3789C9.45704 20.3919 9.45053 20.4049 9.4375 20.418C9.4375 20.418 9.4375 20.4245 9.4375 20.4375L9.33985 20.6133C9.31381 20.6784 9.28125 20.737 9.24219 20.7891C9.20313 20.8281 9.17058 20.8737 9.14454 20.9258C9.11849 20.9518 9.10547 20.9714 9.10547 20.9844L8.8711 21.3359L8.77344 21.4727C8.7474 21.4987 8.72136 21.5312 8.69532 21.5703C8.6823 21.6094 8.66277 21.6419 8.63672 21.668C8.58464 21.7461 8.53907 21.8047 8.5 21.8438L8.1875 22.2344C8.16146 22.2604 8.14844 22.2799 8.14844 22.293C8.1224 22.319 8.08985 22.3516 8.05079 22.3906C8.02474 22.4297 7.99219 22.4622 7.95313 22.4883L7.83594 22.6055C7.79688 22.6706 7.7448 22.7227 7.67969 22.7617L7.48438 22.957L7.38672 23.0352C7.24349 23.1523 7.1198 23.2305 7.01563 23.2695L6.89844 23.3086H6.76172C6.65756 23.3086 6.56641 23.2695 6.48829 23.1914C6.20183 22.9701 5.92188 22.7422 5.64844 22.5078C5.38803 22.2734 5.10808 22.0456 4.8086 21.8242C4.71745 21.7461 4.62631 21.6745 4.53516 21.6094C4.26172 21.401 3.9948 21.2122 3.73438 21.043C3.72136 21.043 3.71485 21.0365 3.71485 21.0234C3.64974 20.9583 3.61719 20.8997 3.61719 20.8477C3.61719 20.7956 3.64974 20.7174 3.71485 20.6133L6.70313 16.0625C6.70313 16.0495 6.70964 16.0365 6.72266 16.0234C6.81381 15.9062 6.91146 15.8607 7.01563 15.8867C7.01563 15.8867 7.02865 15.8932 7.05469 15.9062C7.06771 15.9062 7.08073 15.9128 7.09375 15.9258L7.23047 15.9844C7.25651 16.0104 7.28256 16.0299 7.3086 16.043C7.33464 16.043 7.36068 16.056 7.38672 16.082C7.41276 16.0951 7.43881 16.1081 7.46485 16.1211C7.49089 16.1341 7.51693 16.1536 7.54297 16.1797C7.59506 16.2057 7.64714 16.2383 7.69922 16.2773C7.77735 16.3294 7.85547 16.3815 7.9336 16.4336C8.01172 16.4727 8.08985 16.5247 8.16797 16.5898L8.2461 16.6484C8.45443 16.8047 8.66928 16.9935 8.89063 17.2148L9.125 17.4883L9.30079 17.7227C9.39193 17.8529 9.46355 17.9831 9.51563 18.1133C9.54167 18.1523 9.56771 18.2109 9.59375 18.2891L9.65235 18.4648C9.66537 18.4779 9.67188 18.4909 9.67188 18.5039C9.67188 18.5169 9.67839 18.5365 9.69141 18.5625C9.69141 18.6016 9.69792 18.6276 9.71094 18.6406Z" fill="#50A7BB"/>
<path d="M20.4922 33.5234C20.7656 33.3151 21.0456 33.0352 21.332 32.6836C21.6185 32.332 21.905 31.9349 22.1914 31.4922C22.2565 31.4531 22.3086 31.4271 22.3477 31.4141C22.3997 31.401 22.4844 31.4076 22.6016 31.4336C22.7708 31.5247 22.9922 31.5508 23.2656 31.5117C23.5651 31.4596 23.806 31.375 23.9883 31.2578C24.1706 31.1276 24.3203 30.9844 24.4375 30.8281C24.5547 30.6589 24.6523 30.4701 24.7305 30.2617C24.8216 30.0534 24.9193 29.832 25.0234 29.5977C25.1146 29.4154 25.1862 29.3047 25.2383 29.2656C25.2904 29.2135 25.349 29.2005 25.4141 29.2266C25.5052 29.3438 25.6224 29.3958 25.7656 29.3828C25.9089 29.3568 26.0326 29.3177 26.1367 29.2656C26.3451 29.1745 26.5208 29.0247 26.6641 28.8164C26.8203 28.5951 26.957 28.3542 27.0742 28.0938C27.1914 27.8203 27.2956 27.5469 27.3867 27.2734C27.4779 26.987 27.5755 26.7331 27.6797 26.5117C27.7578 26.3294 27.875 26.2578 28.0313 26.2969C28.1875 26.3359 28.2721 26.4466 28.2852 26.6289C28.1419 27.2799 27.9857 27.944 27.8164 28.6211C27.6471 29.2852 27.4193 29.9232 27.1328 30.5352C26.8594 31.1341 26.5143 31.681 26.0977 32.1758C25.681 32.6706 25.1602 33.0677 24.5352 33.3672C24.3789 33.5625 24.1836 33.7708 23.9492 33.9922C23.7279 34.2005 23.487 34.3958 23.2266 34.5781C22.9661 34.7604 22.6927 34.9167 22.4063 35.0469C22.1198 35.1641 21.8529 35.2292 21.6055 35.2422C21.332 35.4505 21.026 35.6914 20.6875 35.9648C20.349 36.2253 19.9974 36.4596 19.6328 36.668C19.2682 36.8763 18.8971 37.0195 18.5195 37.0977C18.1419 37.1888 17.7708 37.1562 17.4063 37C17.276 36.362 17.1914 35.724 17.1523 35.0859C17.1133 34.4479 17.1979 33.8099 17.4063 33.1719C17.4974 33.1979 17.6016 33.2435 17.7188 33.3086C17.849 33.3737 17.9857 33.4453 18.1289 33.5234C18.2721 33.6016 18.4219 33.6797 18.5781 33.7578C18.7474 33.8229 18.9232 33.8685 19.1055 33.8945C19.3398 33.9336 19.5612 33.9271 19.7695 33.875C19.9909 33.8099 20.2318 33.6927 20.4922 33.5234ZM32.3672 9.94922C32.4714 10.3138 32.4648 10.6914 32.3477 11.082C32.2435 11.4727 32.0547 11.8763 31.7813 12.293C31.5599 12.6315 31.332 12.9505 31.0977 13.25C30.8763 13.5365 30.6289 13.8099 30.3555 14.0703C30.1862 14.2526 30.0365 14.3828 29.9063 14.4609C29.776 14.5391 29.6654 14.5911 29.5742 14.6172C29.4831 14.6302 29.405 14.6237 29.3398 14.5977C29.2747 14.5716 29.2161 14.5391 29.1641 14.5C28.7083 14.1354 28.2591 13.7708 27.8164 13.4062C27.3867 13.0286 26.9115 12.6771 26.3906 12.3516C26.3255 12.2604 26.293 12.1953 26.293 12.1562C26.293 12.1042 26.3255 12.026 26.3906 11.9219L29.3594 7.35156C29.4505 7.23438 29.5352 7.18229 29.6133 7.19531C29.7044 7.19531 29.8021 7.22786 29.9063 7.29297C30.1667 7.44922 30.4271 7.61849 30.6875 7.80078C30.9609 7.97005 31.2083 8.16536 31.4297 8.38672C31.651 8.60807 31.8464 8.84896 32.0156 9.10938C32.1849 9.35677 32.3021 9.63672 32.3672 9.94922ZM29.6719 2.89844C29.776 3.26302 29.7695 3.64062 29.6523 4.03125C29.5482 4.42188 29.3594 4.82552 29.0859 5.24219C28.8646 5.58073 28.6367 5.89974 28.4023 6.19922C28.181 6.48568 27.9336 6.75911 27.6602 7.01953C27.4909 7.20182 27.3411 7.33203 27.2109 7.41016C27.0807 7.48828 26.9701 7.54036 26.8789 7.56641C26.7878 7.57943 26.7096 7.57292 26.6445 7.54688C26.5794 7.52083 26.5208 7.48828 26.4688 7.44922C26.013 7.08464 25.5638 6.72005 25.1211 6.35547C24.6914 5.97786 24.2161 5.6263 23.6953 5.30078C23.6302 5.20964 23.5977 5.14453 23.5977 5.10547C23.5977 5.05339 23.6302 4.97526 23.6953 4.87109L26.6641 0.300781C26.7552 0.183594 26.8398 0.13151 26.918 0.144531C27.0091 0.144531 27.1068 0.177083 27.2109 0.242188C27.4714 0.398438 27.7318 0.567708 27.9922 0.75C28.2656 0.919271 28.513 1.11458 28.7344 1.33594C28.9557 1.55729 29.151 1.79818 29.3203 2.05859C29.4896 2.30599 29.6068 2.58594 29.6719 2.89844ZM26.1953 9.79297C26.2214 9.85807 26.2409 9.91667 26.2539 9.96875C26.28 10.0208 26.306 10.0794 26.332 10.1445L26.3906 10.3203C26.3906 10.3724 26.3971 10.4115 26.4102 10.4375C26.4102 10.4635 26.4102 10.4896 26.4102 10.5156C26.4232 10.5417 26.4297 10.5677 26.4297 10.5938C26.4297 10.6198 26.4297 10.6393 26.4297 10.6523C26.4427 10.6654 26.4492 10.6849 26.4492 10.7109C26.4492 10.9583 26.4232 11.1862 26.3711 11.3945C26.3711 11.4206 26.3646 11.4401 26.3516 11.4531C26.3516 11.4661 26.3516 11.4857 26.3516 11.5117L26.2734 11.7461L26.2148 11.8633C26.2018 11.8893 26.1888 11.9219 26.1758 11.9609C26.1758 12 26.1628 12.0326 26.1367 12.0586L26.0195 12.293L25.7852 12.6641L25.4531 13.1523C25.388 13.2565 25.3164 13.3607 25.2383 13.4648C25.1602 13.556 25.082 13.6536 25.0039 13.7578C24.8997 13.875 24.7956 13.9922 24.6914 14.1094C24.5872 14.2266 24.4766 14.3372 24.3594 14.4414L24.1641 14.6367L24.0664 14.7148C23.9102 14.8451 23.7734 14.9297 23.6563 14.9688C23.5521 15.0078 23.4609 15.0143 23.3828 14.9883C23.3307 14.9753 23.2852 14.9622 23.2461 14.9492C23.2201 14.9232 23.194 14.8971 23.168 14.8711L22.6992 14.5L22.5039 14.3242L21.3516 13.3867L21.2148 13.2891C20.9414 13.0807 20.6745 12.8919 20.4141 12.7227C20.3359 12.6576 20.2969 12.599 20.2969 12.5469C20.2969 12.4818 20.3294 12.3971 20.3945 12.293L23.3828 7.74219C23.474 7.59896 23.5781 7.54036 23.6953 7.56641C23.6953 7.56641 23.7083 7.57292 23.7344 7.58594C23.7474 7.58594 23.78 7.59896 23.832 7.625C23.8581 7.65104 23.8841 7.66406 23.9102 7.66406C24.0794 7.76823 24.2487 7.87891 24.418 7.99609C24.5872 8.10026 24.7565 8.21094 24.9258 8.32812L25.1406 8.50391C25.2839 8.62109 25.4141 8.73828 25.5313 8.85547C25.6484 8.97266 25.7591 9.10286 25.8633 9.24609L25.9805 9.40234L26.1563 9.71484C26.1823 9.76693 26.1953 9.79297 26.1953 9.79297Z" fill="#50A7BB"/>
<path d="M41.0586 24.8672C40.4987 28.3047 39.9909 30.8698 39.5352 32.5625C39.0925 34.2552 38.6888 35.5508 38.3242 36.4492C37.9596 37.3346 37.556 38.0117 37.1133 38.4805C36.6836 38.9492 35.8828 39.3984 34.7109 39.8281C33.5521 40.2448 32.582 40.5378 31.8008 40.707C31.0195 40.8763 30.5313 40.9674 30.3359 40.9805C30.1406 40.9674 30.0169 40.9349 29.9648 40.8828C29.9128 40.8177 29.9583 40.6745 30.1016 40.4531C30.349 40.1016 30.8633 39.6198 31.6445 39.0078C32.4388 38.3958 33.3698 37.6341 34.4375 36.7227C35.5182 35.8112 36.3255 35.0104 36.8594 34.3203C37.3932 33.6172 37.862 32.6667 38.2656 31.4688C38.6823 30.2578 39.0859 28.9948 39.4766 27.6797C39.8672 26.3646 40.1471 25.4727 40.3164 25.0039C40.4987 24.5352 40.681 24.3073 40.8633 24.3203C41.0716 24.3594 41.1367 24.5417 41.0586 24.8672Z" fill="#50A7BB"/>
</svg>
