<svg width="35" height="60" viewBox="0 0 35 60" fill="none" xmlns="http://www.w3.org/2000/svg">
<path d="M0.679688 59.1289C0.653646 59.2461 0.614583 59.3047 0.5625 59.3047C0.523438 59.3177 0.490885 59.2852 0.464844 59.207C0.334635 57.4232 0.263021 55.5091 0.25 53.4648C0.236979 51.4336 0.334635 48.7253 0.542969 45.3398C0.751302 41.9674 1.26562 38.8229 2.08594 35.9062C2.34635 34.9948 2.70443 33.9857 3.16016 32.8789C3.62891 31.7591 4.22135 30.6979 4.9375 29.6953C5.66667 28.6797 6.58464 27.7161 7.69141 26.8047C8.79818 25.8802 10.0352 25.112 11.4023 24.5L13.1211 21.3164C13.4727 20.5872 13.7526 20.1576 13.9609 20.0273C14.1693 19.8841 14.5013 19.8516 14.957 19.9297C16.2982 20.2031 17.3073 20.4961 17.9844 20.8086C18.6745 21.1211 19.0716 21.5573 19.1758 22.1172C19.1758 22.5339 19.1107 22.931 18.9805 23.3086C18.8633 23.6862 18.6615 24.1615 18.375 24.7344C18.0885 25.2943 17.7565 25.8086 17.3789 26.2773C17.0143 26.7331 16.6172 27.0846 16.1875 27.332C15.7708 27.5664 15.224 27.7487 14.5469 27.8789C12.9193 28.0742 11.4935 28.4258 10.2695 28.9336C9.04557 29.4284 8.00391 29.9948 7.14453 30.6328C6.28516 31.2708 5.59505 31.9284 5.07422 32.6055C4.55339 33.2695 4.18229 33.8685 3.96094 34.4023C3.41406 35.6393 3.01693 36.8242 2.76953 37.957C2.52214 39.0898 2.2487 40.6719 1.94922 42.7031C1.64974 44.7474 1.40885 47.0781 1.22656 49.6953C1.04427 52.3255 0.914062 54.4414 0.835938 56.043C0.796875 57.4492 0.744792 58.4779 0.679688 59.1289ZM21.6562 30.8281C21.6562 30.2161 21.8125 28.6211 22.125 26.043C22.4505 23.4648 22.6914 21.6224 22.8477 20.5156C23.0169 19.3958 23.2057 18.2109 23.4141 16.9609C23.6224 15.7109 23.8242 14.7018 24.0195 13.9336C24.2409 13.2956 24.4753 12.651 24.7227 12C24.9831 11.349 25.25 10.7044 25.5234 10.0664C25.7057 9.77995 25.8229 9.82552 25.875 10.2031C25.5495 12.3646 25.25 14.6107 24.9766 16.9414C24.7031 19.2591 24.5143 20.9193 24.4102 21.9219C24.319 22.9245 24.2734 23.5104 24.2734 23.6797C24.2214 24.487 24.1888 25.1185 24.1758 25.5742V26.8633C24.1758 28.5039 24.612 29.6497 25.4844 30.3008C26.0182 30.6523 26.5456 30.7695 27.0664 30.6523C27.6003 30.5352 28.0039 30.2617 28.2773 29.832C28.5638 29.4023 28.8047 28.901 29 28.3281C29.1953 27.7422 29.3841 27.4492 29.5664 27.4492C29.7747 27.4492 29.8594 27.6576 29.8203 28.0742C29.8073 28.7773 29.5859 29.9232 29.1562 31.5117C28.7396 33.0872 28.1667 34.3828 27.4375 35.3984C26.7214 36.4141 25.849 36.9479 24.8203 37C23.7656 36.9609 22.9453 36.3685 22.3594 35.2227C21.8255 34.0898 21.5911 32.625 21.6562 30.8281ZM34.5273 3.5625C34.6315 3.9401 34.625 4.33073 34.5078 4.73438C34.4036 5.13802 34.2018 5.5612 33.9023 6.00391C33.7201 6.30339 33.5247 6.57682 33.3164 6.82422C33.1211 7.05859 32.9128 7.28646 32.6914 7.50781C32.6263 7.58594 32.5221 7.68359 32.3789 7.80078C32.2357 7.91797 32.0859 8.02865 31.9297 8.13281C31.7734 8.23698 31.6237 8.3151 31.4805 8.36719C31.3372 8.40625 31.2331 8.38672 31.168 8.30859C30.6992 7.93099 30.237 7.54688 29.7812 7.15625C29.3255 6.76562 28.8242 6.40104 28.2773 6.0625C28.1862 5.9974 28.1406 5.9388 28.1406 5.88672C28.1536 5.82161 28.1927 5.73047 28.2578 5.61328L31.3828 0.847656C31.474 0.717448 31.5651 0.658854 31.6562 0.671875C31.7474 0.671875 31.8451 0.704427 31.9492 0.769531C32.2227 0.925781 32.4961 1.10156 32.7695 1.29688C33.043 1.49219 33.2969 1.70703 33.5312 1.94141C33.7656 2.16276 33.9674 2.41016 34.1367 2.68359C34.319 2.94401 34.4492 3.23698 34.5273 3.5625Z" fill="#50A7BB"/>
</svg>
