<svg width="118" height="74" viewBox="0 0 118 74" fill="none" xmlns="http://www.w3.org/2000/svg">
<path d="M6.71484 35.8828C6.14193 37.1068 5.5625 38.3503 4.97656 39.6133C4.40365 40.8633 3.92839 42.0612 3.55078 43.207C2.70443 45.7591 2.35286 47.7708 2.49609 49.2422C2.61328 50.7917 3.22526 52.0222 4.33203 52.9336C5.45182 53.8451 7.04688 54.3008 9.11719 54.3008C10.8359 54.3008 12.4961 53.9362 14.0977 53.207C15.2956 52.6732 16.3568 52.0156 17.2812 51.2344C18.2057 50.4531 18.9154 49.6458 19.4102 48.8125C19.918 47.9792 20.1719 47.2761 20.1719 46.7031C20.1849 46.4427 20.0547 46.2214 19.7812 46.0391C19.5208 45.8568 19.2018 45.7005 18.8242 45.5703C18.4466 45.4401 18.056 45.3229 17.6523 45.2188C17.2487 45.1146 16.9232 45.0104 16.6758 44.9063C16.0768 44.6849 15.5885 44.3594 15.2109 43.9297C14.8464 43.487 14.6706 42.8294 14.6836 41.957C14.6836 40.9154 15.0286 39.6849 15.7188 38.2656C15.849 38.0964 15.9857 37.9727 16.1289 37.8945C16.2721 37.8164 16.4023 37.7839 16.5195 37.7969C16.6497 37.8099 16.7604 37.8555 16.8516 37.9336C16.9557 38.0117 17.0273 38.1224 17.0664 38.2656C17.0273 38.461 17.151 38.6563 17.4375 38.8516C17.737 39.0469 18.2839 39.2878 19.0781 39.5742C19.8854 39.8607 20.3867 40.082 20.582 40.2383C21.2201 40.668 21.5391 41.4623 21.5391 42.6211C21.5391 44.3659 21.194 46.3711 20.5039 48.6367C19.8268 50.8893 18.8828 52.849 17.6719 54.5156C17.1641 55.2839 16.5391 56.0456 15.7969 56.8008C15.0547 57.556 14.2474 58.1875 13.375 58.6953C11.6953 59.8542 9.76172 60.4336 7.57422 60.4336C5.08724 60.3945 3.19922 59.5807 1.91016 57.9922C1.32422 57.1849 0.920573 56.3255 0.699219 55.4141C0.477865 54.5156 0.367188 53.6563 0.367188 52.836C0.40625 51.3516 0.601562 49.8607 0.953125 48.3633C1.30469 46.8659 1.75391 45.388 2.30078 43.9297C2.84766 42.4714 3.46615 41.0456 4.15625 39.6524C4.85938 38.2591 5.57552 36.9245 6.30469 35.6485C6.42188 35.4531 6.48698 35.3425 6.5 35.3164C6.65625 35.069 6.79297 34.9714 6.91016 35.0235H6.92969C6.96875 35.0625 6.96875 35.1406 6.92969 35.2578C6.90365 35.375 6.83203 35.5833 6.71484 35.8828Z" fill="#50A7BB"/>
<path d="M43.3555 3.21877C42.8997 3.64845 42.1185 4.26694 41.0117 5.07423C39.9049 5.86851 38.0495 7.13153 35.4453 8.8633C35.3542 8.87632 35.3737 8.75262 35.5039 8.4922C35.6471 8.23179 35.8945 7.89976 36.2461 7.49611C36.8581 7.01434 37.776 6.34377 39 5.48439C40.224 4.612 41.8906 3.45314 44 2.00783C44.4167 1.7995 44.2018 2.20314 43.3555 3.21877ZM16.9492 36.461L17.7109 34.7617C18.1276 33.7591 18.3294 32.9388 18.3164 32.3008C18.3164 31.806 18.1016 31.181 17.6719 30.4258C17.4375 30.0352 17.2096 29.638 16.9883 29.2344C16.7539 28.8307 16.5195 28.4141 16.2852 27.9844C16.2852 27.8151 16.5586 27.1836 17.1055 26.0899C17.6784 24.957 18.0625 24.332 18.2578 24.2149C18.6875 23.9805 19.3516 24.7422 20.25 26.5C20.7578 27.5156 21.0117 28.4531 21.0117 29.3125C21.0117 30.1719 20.8555 31.0703 20.543 32.0078C20.1914 33.0365 19.7682 33.9349 19.2734 34.7031C18.6354 35.7578 18.1406 36.6367 17.7891 37.3399C17.3724 38.1992 17.138 38.7526 17.0859 39C16.8255 39.1953 16.6042 39.2995 16.4219 39.3125C16.2266 39.3255 15.9987 39.2214 15.7383 39C16.194 38.0104 16.5977 37.1641 16.9492 36.461ZM21.207 20.2695C22.0273 19.6445 22.8411 19.0781 23.6484 18.5703C24.4557 18.0625 25.2695 17.5352 26.0898 16.9883C37.457 9.31903 44.0391 4.78127 45.8359 3.37502C47.8802 1.78647 48.9479 0.93361 49.0391 0.816423C49.4557 0.542985 49.5404 0.705746 49.293 1.3047C49.0586 1.89064 48.0951 3.22528 46.4023 5.30861C43.4596 7.96486 39.7227 10.8099 35.1914 13.8438C30.6602 16.8646 25.9596 19.8138 21.0898 22.6914C20.7643 22.9128 20.4453 23.1211 20.1328 23.3164C19.8333 23.4987 19.5404 23.668 19.2539 23.8242C18.6029 24.2149 18.2839 24.2409 18.2969 23.9024C18.2969 23.7591 18.7331 23.1016 19.6055 21.9297C20.1523 21.2396 20.6862 20.6862 21.207 20.2695Z" fill="#50A7BB"/>
<path d="M23.2578 50.3945C23.5964 50.1341 24 49.8216 24.4688 49.457C25.7188 48.5326 26.7604 47.6211 27.5938 46.7227C28.4401 45.8242 28.8893 45.1406 28.9414 44.6719C29.0456 44.112 28.7331 43.3958 28.0039 42.5235C27.2747 41.6641 26.4089 40.8698 25.4062 40.1406C25.3281 40.0755 25.2826 40.0169 25.2695 39.9649C25.2695 39.9128 25.2826 39.8607 25.3086 39.8086L26.2266 37.6992L27.5156 34.8086C27.6198 34.5742 27.7109 34.3854 27.7891 34.2422C27.8802 34.086 27.9844 34.0469 28.1016 34.125C28.6484 34.5807 29.1888 35.0755 29.7227 35.6094C30.2695 36.1302 30.7383 36.7357 31.1289 37.4258C31.5195 38.1029 31.7148 38.9883 31.7148 40.082C31.7148 41.3581 31.5065 42.5886 31.0898 43.7735C30.6862 44.9453 30.1328 46.1628 29.4297 47.4258C29.1693 47.8815 28.8763 48.2982 28.5508 48.6758C28.2383 49.0404 27.7891 49.3594 27.2031 49.6328C26.6302 49.9063 25.3867 50.3425 23.4727 50.9414C23.2383 51.0065 23.0755 51.0065 22.9844 50.9414C22.9583 50.9154 22.9583 50.8568 22.9844 50.7656C23.0104 50.6615 23.1016 50.5378 23.2578 50.3945Z" fill="#50A7BB"/>
<path d="M36.9883 31.3906L39.0195 26.6055C39.1888 26.2149 39.3255 26.0195 39.4297 26.0195C39.599 26.0195 39.651 26.1432 39.5859 26.3906C39.5078 26.6641 39.4167 27.1393 39.3125 27.8164C39.2083 28.4805 39.1302 29.0013 39.0781 29.3789C39 30.043 38.9219 30.7917 38.8438 31.625C38.7656 32.4584 38.694 33.3177 38.6289 34.2031C38.5638 35.0755 38.4987 35.9284 38.4336 36.7617C38.3685 37.5951 38.2969 38.3438 38.2188 39.0078C38.0104 41.0261 37.6914 42.6927 37.2617 44.0078C36.832 45.3099 36.3307 46.5208 35.7578 47.6406C35.1849 48.7474 34.7227 49.3268 34.3711 49.3789C34.2799 49.3789 34.306 49.1445 34.4492 48.6758C34.6185 48.2331 34.7747 47.6797 34.918 47.0156C35.0742 46.3516 35.2109 45.6419 35.3281 44.8867C35.4453 44.1185 35.5495 43.3373 35.6406 42.543C35.7318 41.7357 35.8099 40.974 35.875 40.2578C35.9661 39.5807 36.0443 38.5716 36.1094 37.2305C36.1745 35.8763 36.2721 34.7305 36.4023 33.793C36.5326 32.8555 36.7279 32.0547 36.9883 31.3906Z" fill="#50A7BB"/>
<path d="M50.7188 43.5195C49.9375 45.4076 49.2799 46.7617 48.7461 47.582C48.2253 48.4024 47.776 48.9623 47.3984 49.2617C47.0208 49.5482 46.4805 49.8151 45.7773 50.0625C45.0872 50.3099 44.3516 50.5313 43.5703 50.7266C42.7891 50.9089 42.2096 51 41.832 51C41.6758 51 41.5977 50.9935 41.5977 50.9805C41.4935 50.8503 42.0273 50.4141 43.1992 49.6719C44.3841 48.9297 45.3607 48.2526 46.1289 47.6406C46.8971 47.0287 47.5807 46.3581 48.1797 45.6289C48.7917 44.8998 49.2279 44.138 49.4883 43.3438C49.3451 43.4089 49.1693 43.474 48.9609 43.5391C48.7526 43.5912 48.5312 43.6367 48.2969 43.6758C48.0755 43.7018 47.8607 43.7214 47.6523 43.7344C47.444 43.7474 47.2617 43.7409 47.1055 43.7149C46.3633 43.6628 45.7448 43.4154 45.25 42.9727C44.7682 42.5169 44.5404 41.9636 44.5664 41.3125C44.6055 40.987 44.6966 40.6029 44.8398 40.1602C44.9831 39.7175 45.2826 39.0208 45.7383 38.0703C46.194 37.1068 46.6888 36.3125 47.2227 35.6875C47.7695 35.0625 48.2773 34.75 48.7461 34.75C49.5534 34.75 50.224 35.0951 50.7578 35.7852C51.2917 36.4623 51.6107 37.2826 51.7148 38.2461C51.7409 38.7279 51.7279 39.2097 51.6758 39.6914C51.6367 40.1732 51.5781 40.5768 51.5 40.9024C51.4349 41.2149 51.3307 41.625 51.1875 42.1328C51.0443 42.6276 50.888 43.0899 50.7188 43.5195Z" fill="#50A7BB"/>
<path d="M50.0742 42.5313C50.0742 42.4011 49.9766 41.8867 49.7812 40.9883C49.7422 40.7149 49.7227 40.4479 49.7227 40.1875C49.7227 39.7188 50.1719 39.3216 51.0703 38.9961C51.8125 38.6836 52.3984 38.3451 52.8281 37.9805C53.2708 37.6159 53.5182 37.2513 53.5703 36.8867C53.6354 36.6003 53.6549 36.3333 53.6289 36.086C53.6029 35.8255 53.5703 35.5391 53.5312 35.2266C53.4922 34.9141 53.4727 34.6146 53.4727 34.3281C53.4727 34.0287 53.4922 33.8008 53.5312 33.6445C53.5703 33.4102 54.1823 31.5807 55.3672 28.1563C55.4844 27.974 55.5951 27.974 55.6992 28.1563C55.7643 28.2735 55.7969 28.5078 55.7969 28.8594L55.7383 33.4883C55.6992 35.1419 55.3151 36.711 54.5859 38.1953C53.8698 39.6797 53.1862 40.793 52.5352 41.5352C51.8971 42.2774 51.4219 42.7656 51.1094 43C50.5104 43.7813 50.1654 43.625 50.0742 42.5313ZM57.5352 14.7774C57.6393 15.155 57.6328 15.5456 57.5156 15.9492C57.4115 16.3529 57.2096 16.7761 56.9102 17.2188C56.7279 17.5182 56.5326 17.7917 56.3242 18.0391C56.1289 18.2735 55.9206 18.5013 55.6992 18.7227C55.6341 18.8008 55.5299 18.8985 55.3867 19.0156C55.2435 19.1328 55.0938 19.2435 54.9375 19.3477C54.7812 19.4518 54.6315 19.53 54.4883 19.582C54.3451 19.6211 54.2409 19.6016 54.1758 19.5235C53.707 19.1459 53.2448 18.7617 52.7891 18.3711C52.3333 17.9805 51.832 17.6159 51.2852 17.2774C51.194 17.2123 51.1484 17.1537 51.1484 17.1016C51.1615 17.0365 51.2005 16.9453 51.2656 16.8281L54.3906 12.0625C54.4818 11.9323 54.5729 11.8737 54.6641 11.8867C54.7552 11.8867 54.8529 11.9193 54.957 11.9844C55.2305 12.1406 55.5039 12.3164 55.7773 12.5117C56.0508 12.707 56.3047 12.9219 56.5391 13.1563C56.7734 13.3776 56.9753 13.625 57.1445 13.8985C57.3268 14.1589 57.457 14.4518 57.5352 14.7774Z" fill="#50A7BB"/>
<path d="M61.207 39.9649C61.1029 41.2669 60.8099 42.3737 60.3281 43.2852C59.8464 44.1966 59.2995 44.6524 58.6875 44.6524C58.6875 44.1576 58.8438 42.6211 59.1562 40.043C59.4818 37.4649 59.7227 35.6224 59.8789 34.5156C60.0482 33.3958 60.237 32.211 60.4453 30.961C60.6536 29.711 60.8555 28.7018 61.0508 27.9336C61.2721 27.2956 61.5065 26.6511 61.7539 26C62.0143 25.349 62.2812 24.7044 62.5547 24.0664C62.737 23.78 62.8542 23.8255 62.9062 24.2031C62.5807 26.3646 62.2812 28.6107 62.0078 30.9414C61.7344 33.2591 61.5456 34.9193 61.4414 35.9219C61.3503 36.9245 61.3047 37.5104 61.3047 37.6797C61.2396 38.7474 61.207 39.5091 61.207 39.9649Z" fill="#50A7BB"/>
<path d="M64.4688 51C62.4245 50.961 60.9076 50.2578 59.918 48.8906C59.1237 47.7448 58.7201 46.332 58.707 44.6524C58.8503 44.1055 58.9935 43.5651 59.1367 43.0313C59.2669 42.4974 59.4297 42.0156 59.625 41.586C59.8073 41.1563 60.0286 40.7982 60.2891 40.5117C60.5365 40.2123 60.849 40.03 61.2266 39.9649C61.2266 41.4492 61.5977 42.6146 62.3398 43.461C63.069 44.2943 64.0065 44.711 65.1523 44.711C65.2305 44.6198 65.3281 44.4766 65.4453 44.2813C65.5625 44.086 65.6797 43.8711 65.7969 43.6367C65.9271 43.3893 66.0573 43.1354 66.1875 42.875C66.3177 42.6146 66.4414 42.3672 66.5586 42.1328C66.6497 41.9766 66.793 41.7097 66.9883 41.332C67.1836 40.9414 67.418 40.5182 67.6914 40.0625C67.9648 39.6068 68.2839 39.1511 68.6484 38.6953C69.013 38.2266 69.4102 37.8294 69.8398 37.5039C70.2695 37.1784 70.7383 36.9505 71.2461 36.8203C71.7539 36.6901 72.2878 36.7292 72.8477 36.9375C73.4596 37.1458 74.0781 37.3086 74.7031 37.4258C75.3411 37.543 75.9531 37.5169 76.5391 37.3477C76.6823 37.3477 76.7865 37.3737 76.8516 37.4258C76.9167 37.4779 76.9232 37.6276 76.8711 37.875C76.806 38.2526 76.6367 38.6563 76.3633 39.086C76.1029 39.5026 75.8294 39.8672 75.543 40.1797C75.1914 40.6354 74.7487 41.3125 74.2148 42.211C73.681 43.0964 73.1016 44.0925 72.4766 45.1992C72.0469 45.9675 71.5586 46.6966 71.0117 47.3867C70.4648 48.0638 69.8594 48.6693 69.1953 49.2031C68.5312 49.724 67.8021 50.1472 67.0078 50.4727C66.2266 50.7852 65.3802 50.961 64.4688 51ZM66.2461 44.711C66.793 44.6589 67.3919 44.5677 68.043 44.4375C68.707 44.3073 69.3581 44.0925 69.9961 43.793C70.6211 43.4805 71.2786 43.0052 71.9688 42.3672C72.6589 41.7162 73.2839 40.9479 73.8438 40.0625C73.5443 39.9974 73.2188 39.9063 72.8672 39.7891C72.5156 39.6719 72.1706 39.5612 71.832 39.457C71.3242 39.3138 70.875 39.2748 70.4844 39.3399C70.0938 39.405 69.7357 39.5482 69.4102 39.7695C69.0977 39.9779 68.8112 40.2578 68.5508 40.6094C68.2904 40.9479 68.0495 41.3255 67.8281 41.7422C67.5677 42.25 67.3073 42.7383 67.0469 43.207C66.7865 43.6628 66.5195 44.1641 66.2461 44.711ZM74.0781 22.9336C74.1823 23.3112 74.1758 23.7018 74.0586 24.1055C73.9544 24.5091 73.7526 24.9323 73.4531 25.375C73.2708 25.6745 73.0755 25.9479 72.8672 26.1953C72.6719 26.4297 72.4635 26.6576 72.2422 26.8789C72.1771 26.957 72.0729 27.0547 71.9297 27.1719C71.7865 27.2891 71.6367 27.3998 71.4805 27.5039C71.3242 27.6081 71.1745 27.6862 71.0312 27.7383C70.888 27.7774 70.7839 27.7578 70.7188 27.6797C70.25 27.3021 69.7878 26.918 69.332 26.5274C68.8763 26.1367 68.375 25.7722 67.8281 25.4336C67.737 25.3685 67.6914 25.3099 67.6914 25.2578C67.7044 25.1927 67.7435 25.1016 67.8086 24.9844L70.9336 20.2188C71.0247 20.0886 71.1159 20.03 71.207 20.043C71.2982 20.043 71.3958 20.0755 71.5 20.1406C71.7734 20.2969 72.0469 20.4727 72.3203 20.668C72.5938 20.8633 72.8477 21.0781 73.082 21.3125C73.3164 21.5339 73.5182 21.7813 73.6875 22.0547C73.8698 22.3151 74 22.6081 74.0781 22.9336Z" fill="#50A7BB"/>
<path d="M83.5703 73.1289C83.5443 73.2461 83.5052 73.3047 83.4531 73.3047C83.4141 73.3177 83.3815 73.2852 83.3555 73.207C83.2253 71.4232 83.1536 69.5091 83.1406 67.4649C83.1276 65.4336 83.2253 62.7253 83.4336 59.3399C83.6419 55.9675 84.1562 52.8229 84.9766 49.9063C85.237 48.9948 85.5951 47.9857 86.0508 46.8789C86.5195 45.7591 87.112 44.6979 87.8281 43.6953C88.5573 42.6797 89.4753 41.7162 90.582 40.8047C91.6888 39.8802 92.9258 39.112 94.293 38.5L96.0117 35.3164C96.3633 34.5873 96.6432 34.1576 96.8516 34.0274C97.0599 33.8841 97.3919 33.8516 97.8477 33.9297C99.1888 34.2031 100.198 34.4961 100.875 34.8086C101.565 35.1211 101.962 35.5573 102.066 36.1172C102.066 36.5339 102.001 36.931 101.871 37.3086C101.754 37.6862 101.552 38.1615 101.266 38.7344C100.979 39.2943 100.647 39.8086 100.27 40.2774C99.9049 40.7331 99.5078 41.0847 99.0781 41.332C98.6615 41.5664 98.1146 41.7487 97.4375 41.8789C95.8099 42.0742 94.3841 42.4258 93.1602 42.9336C91.9362 43.4284 90.8945 43.9948 90.0352 44.6328C89.1758 45.2708 88.4857 45.9284 87.9648 46.6055C87.444 47.2695 87.0729 47.8685 86.8516 48.4024C86.3047 49.6393 85.9076 50.8242 85.6602 51.957C85.4128 53.0899 85.1393 54.6719 84.8398 56.7031C84.5404 58.7474 84.2995 61.0781 84.1172 63.6953C83.9349 66.3255 83.8047 68.4414 83.7266 70.043C83.6875 71.4492 83.6354 72.4779 83.5703 73.1289Z" fill="#50A7BB"/>
<path d="M104.547 44.8281C104.547 44.2162 104.703 42.6211 105.016 40.043C105.341 37.4649 105.582 35.6224 105.738 34.5156C105.908 33.3958 106.096 32.211 106.305 30.961C106.513 29.711 106.715 28.7018 106.91 27.9336C107.132 27.2956 107.366 26.6511 107.613 26C107.874 25.349 108.141 24.7044 108.414 24.0664C108.596 23.78 108.714 23.8255 108.766 24.2031C108.44 26.3646 108.141 28.6107 107.867 30.9414C107.594 33.2591 107.405 34.9193 107.301 35.9219C107.21 36.9245 107.164 37.5104 107.164 37.6797C107.112 38.487 107.079 39.1185 107.066 39.5742V40.8633C107.066 42.5039 107.503 43.6498 108.375 44.3008C108.909 44.6524 109.436 44.7695 109.957 44.6524C110.491 44.5352 110.895 44.2617 111.168 43.832C111.454 43.4024 111.695 42.9011 111.891 42.3281C112.086 41.7422 112.275 41.4492 112.457 41.4492C112.665 41.4492 112.75 41.6576 112.711 42.0742C112.698 42.7774 112.477 43.9232 112.047 45.5117C111.63 47.0873 111.057 48.3828 110.328 49.3985C109.612 50.4141 108.74 50.9479 107.711 51C106.656 50.961 105.836 50.3685 105.25 49.2227C104.716 48.0899 104.482 46.625 104.547 44.8281ZM117.418 17.5625C117.522 17.9401 117.516 18.3307 117.398 18.7344C117.294 19.138 117.092 19.5612 116.793 20.0039C116.611 20.3034 116.415 20.5768 116.207 20.8242C116.012 21.0586 115.803 21.2865 115.582 21.5078C115.517 21.586 115.413 21.6836 115.27 21.8008C115.126 21.918 114.977 22.0287 114.82 22.1328C114.664 22.237 114.514 22.3151 114.371 22.3672C114.228 22.4063 114.124 22.3867 114.059 22.3086C113.59 21.931 113.128 21.5469 112.672 21.1563C112.216 20.7656 111.715 20.4011 111.168 20.0625C111.077 19.9974 111.031 19.9388 111.031 19.8867C111.044 19.8216 111.083 19.7305 111.148 19.6133L114.273 14.8477C114.365 14.7175 114.456 14.6589 114.547 14.6719C114.638 14.6719 114.736 14.7044 114.84 14.7695C115.113 14.9258 115.387 15.1016 115.66 15.2969C115.934 15.4922 116.188 15.707 116.422 15.9414C116.656 16.1628 116.858 16.4102 117.027 16.6836C117.21 16.944 117.34 17.237 117.418 17.5625Z" fill="#50A7BB"/>
</svg>
