<svg width="70" height="51" viewBox="0 0 70 51" fill="none" xmlns="http://www.w3.org/2000/svg">
<path d="M17.8906 18.8789C18.2161 18.8268 18.3268 18.905 18.2227 19.1133C18.1315 19.3216 17.8385 19.6927 17.3438 20.2266C16.2891 20.7344 15.2344 21.3594 14.1797 22.1016C13.125 22.8438 12.0898 23.612 11.0742 24.4063C9.01693 26.138 7.30469 28.1758 5.9375 30.5195C4.42708 33.2148 3.67188 35.6888 3.67188 37.9414C3.64583 40.0247 4.28385 41.6589 5.58594 42.8438C6.88802 44.0417 8.61328 44.6992 10.7617 44.8164C13.3789 44.9596 15.8138 44.6146 18.0664 43.7813C19.6549 43.2214 21.0417 42.4987 22.2266 41.6133C23.0859 41.0534 23.8607 40.4219 24.5508 39.7188C25.2409 39.0286 25.8919 38.3451 26.5039 37.668C27.0117 37.03 27.3633 36.737 27.5586 36.7891C27.7539 36.8542 27.5586 37.2708 26.9727 38.0391C26.5299 38.7161 26.0221 39.4518 25.4492 40.2461C20.5664 47.1862 15.0781 50.7279 8.98438 50.8711C6.10677 50.7409 3.99089 49.901 2.63672 48.3516C1.28255 46.8021 0.605469 44.7578 0.605469 42.2188C0.696615 38.7552 1.84245 35.0833 4.04297 31.2031C5.56641 28.7422 7.27865 26.5612 9.17969 24.6602C9.28385 24.556 9.41406 24.4323 9.57031 24.2891C9.03646 24.1328 8.55469 23.9505 8.125 23.7422C7.70833 23.5208 7.34375 23.293 7.03125 23.0586C6.73177 22.8242 6.4974 22.5898 6.32812 22.3555C6.17188 22.1081 6.09375 21.8737 6.09375 21.6523C6.09375 21.3659 6.23698 21.0078 6.52344 20.5781C6.69271 20.3177 6.9987 19.875 7.44141 19.25C7.88411 18.612 8.47005 17.9089 9.19922 17.1406C9.94141 16.3073 10.6641 15.7018 11.3672 15.3242C12.0703 14.9336 12.7539 14.7188 13.418 14.6797C13.7956 14.6276 14.1536 14.6797 14.4922 14.8359C14.8438 14.9922 15.1107 15.2591 15.293 15.6367C15.4883 16.0143 15.5143 16.3724 15.3711 16.7109C15.2409 17.0495 14.9674 17.2708 14.5508 17.375C14.4466 17.388 14.3424 17.375 14.2383 17.3359C14.1341 17.2839 14.0169 17.2253 13.8867 17.1602C13.7695 17.0951 13.6393 17.0234 13.4961 16.9453C13.3529 16.8672 13.1966 16.8021 13.0273 16.75C12.819 16.6849 12.5911 16.6589 12.3438 16.6719C12.1094 16.6719 11.875 16.7109 11.6406 16.7891C11.4062 16.8672 11.1784 16.9714 10.957 17.1016C10.7357 17.2188 10.5404 17.362 10.3711 17.5313C10.2279 17.6745 10.0781 17.8633 9.92188 18.0977C9.76562 18.319 9.66146 18.5599 9.60938 18.8203C9.58333 19.0026 9.60286 19.1589 9.66797 19.2891C9.74609 19.4193 9.84375 19.5365 9.96094 19.6406C10.0781 19.7448 10.2148 19.8359 10.3711 19.9141C10.5273 19.9922 10.6836 20.0573 10.8398 20.1094C11.2565 20.2526 11.7122 20.3763 12.207 20.4805C12.7148 20.5846 13.2487 20.5651 13.8086 20.4219C14.5638 20.2396 15.2799 20.0052 15.957 19.7188C16.6341 19.4193 17.2786 19.1393 17.8906 18.8789Z" fill="#50A7BB"/>
<path d="M30.1172 30.5195C29.3359 32.4076 28.6784 33.7617 28.1445 34.582C27.6237 35.4023 27.1745 35.9622 26.7969 36.2617C26.4193 36.5482 25.8789 36.8151 25.1758 37.0625C24.4857 37.3099 23.75 37.5313 22.9688 37.7266C22.1875 37.9089 21.6081 38 21.2305 38C21.0742 38 20.9961 37.9935 20.9961 37.9805C20.8919 37.8503 21.4258 37.4141 22.5977 36.6719C23.7826 35.9297 24.7591 35.2526 25.5273 34.6406C26.2956 34.0286 26.9792 33.3581 27.5781 32.6289C28.1901 31.8997 28.6263 31.138 28.8867 30.3438C28.7435 30.4089 28.5677 30.474 28.3594 30.5391C28.151 30.5912 27.9297 30.6367 27.6953 30.6758C27.474 30.7018 27.2591 30.7214 27.0508 30.7344C26.8424 30.7474 26.6602 30.7409 26.5039 30.7148C25.7617 30.6628 25.1432 30.4154 24.6484 29.9727C24.1667 29.5169 23.9388 28.9635 23.9648 28.3125C24.0039 27.987 24.0951 27.6029 24.2383 27.1602C24.3815 26.7175 24.681 26.0208 25.1367 25.0703C25.5924 24.1068 26.0872 23.3125 26.6211 22.6875C27.168 22.0625 27.6758 21.75 28.1445 21.75C28.9518 21.75 29.6224 22.0951 30.1562 22.7852C30.6901 23.4622 31.0091 24.2826 31.1133 25.2461C31.1393 25.7279 31.1263 26.2096 31.0742 26.6914C31.0352 27.1732 30.9766 27.5768 30.8984 27.9023C30.8333 28.2148 30.7292 28.625 30.5859 29.1328C30.4427 29.6276 30.2865 30.0898 30.1172 30.5195Z" fill="#50A7BB"/>
<path d="M48.5547 16.1523C48.5547 16.8294 48.3789 17.6107 48.0273 18.4961C47.5195 19.7201 46.7188 20.9766 45.625 22.2656C44.8828 23.2031 43.9648 24.0039 42.8711 24.668C41.5169 25.4753 40.1888 25.8789 38.8867 25.8789C37.7539 25.8789 36.875 25.7227 36.25 25.4102C35.638 25.0977 35.0391 24.6484 34.4531 24.0625C34.362 24.0625 34.1276 24.4206 33.75 25.1367C32.6953 27.1159 31.9336 28.3854 31.4648 28.9453C30.9961 29.5573 30.6771 29.9089 30.5078 30C30.1302 29.2188 29.9414 28.3789 29.9414 27.4805C29.8112 26.9206 29.8242 26.4128 29.9805 25.957C30.4232 25.918 30.8398 25.7813 31.2305 25.5469C31.6211 25.3125 32.1289 24.8242 32.7539 24.082C33.3789 23.3398 33.8477 22.6172 34.1602 21.9141C34.2643 21.6016 34.4596 21.1133 34.7461 20.4492C35.0065 19.9414 35.2734 19.6875 35.5469 19.6875C35.8594 19.6875 36.1328 19.8242 36.3672 20.0977C36.888 20.7487 37.513 21.0742 38.2422 21.0742C38.3333 21.0091 38.9258 20.2865 40.0195 18.9063C40.7096 18.0599 41.3607 17.2982 41.9727 16.6211C42.5846 15.931 43.1771 15.3516 43.75 14.8828C44.6484 14.1667 45.4492 13.8086 46.1523 13.8086C46.9076 13.8086 47.4935 14.043 47.9102 14.5117C48.3398 14.9414 48.5547 15.4883 48.5547 16.1523ZM46.8164 17.8125C46.2565 17.2917 45.4753 16.9987 44.4727 16.9336C43.8477 16.9336 43.138 17.2787 42.3438 17.9688C41.4974 18.724 40.6641 19.7591 39.8438 21.0742C40.1172 21.1523 40.7357 21.1133 41.6992 20.957C42.5977 20.7747 43.3984 20.5078 44.1016 20.1563C44.7656 19.8438 45.3971 19.4141 45.9961 18.8672C46.543 18.3594 46.8164 18.0078 46.8164 17.8125ZM38.8477 3.69141C38.9518 4.06902 38.9453 4.45964 38.8281 4.86329C38.724 5.26693 38.5221 5.69011 38.2227 6.13282C38.0404 6.4323 37.8451 6.70573 37.6367 6.95313C37.4414 7.18751 37.2331 7.41537 37.0117 7.63672C36.9466 7.71485 36.8424 7.81251 36.6992 7.92969C36.556 8.04688 36.4062 8.15756 36.25 8.26172C36.0938 8.36589 35.944 8.44402 35.8008 8.4961C35.6576 8.53516 35.5534 8.51563 35.4883 8.43751C35.0195 8.0599 34.5573 7.67579 34.1016 7.28516C33.6458 6.89454 33.1445 6.52995 32.5977 6.19141C32.5065 6.12631 32.4609 6.06771 32.4609 6.01563C32.474 5.95053 32.513 5.85938 32.5781 5.74219L35.7031 0.976568C35.7943 0.84636 35.8854 0.787766 35.9766 0.800787C36.0677 0.800787 36.1654 0.833339 36.2695 0.898443C36.543 1.05469 36.8164 1.23047 37.0898 1.42579C37.3633 1.6211 37.6172 1.83594 37.8516 2.07032C38.0859 2.29167 38.2878 2.53907 38.457 2.81251C38.6393 3.07292 38.7695 3.36589 38.8477 3.69141Z" fill="#50A7BB"/>
<path d="M58.6328 30.5195C57.8516 32.4076 57.194 33.7617 56.6602 34.582C56.1393 35.4023 55.6901 35.9622 55.3125 36.2617C54.9349 36.5482 54.3945 36.8151 53.6914 37.0625C53.0013 37.3099 52.2656 37.5313 51.4844 37.7266C50.7031 37.9089 50.1237 38 49.7461 38C49.5898 38 49.5117 37.9935 49.5117 37.9805C49.4076 37.8503 49.9414 37.4141 51.1133 36.6719C52.2982 35.9297 53.2747 35.2526 54.043 34.6406C54.8112 34.0286 55.4948 33.3581 56.0938 32.6289C56.7057 31.8997 57.1419 31.138 57.4023 30.3438C57.2591 30.4089 57.0833 30.474 56.875 30.5391C56.6667 30.5912 56.4453 30.6367 56.2109 30.6758C55.9896 30.7018 55.7747 30.7214 55.5664 30.7344C55.3581 30.7474 55.1758 30.7409 55.0195 30.7148C54.2773 30.6628 53.6589 30.4154 53.1641 29.9727C52.6823 29.5169 52.4544 28.9635 52.4805 28.3125C52.5195 27.987 52.6107 27.6029 52.7539 27.1602C52.8971 26.7175 53.1966 26.0208 53.6523 25.0703C54.1081 24.1068 54.6029 23.3125 55.1367 22.6875C55.6836 22.0625 56.1914 21.75 56.6602 21.75C57.4674 21.75 58.138 22.0951 58.6719 22.7852C59.2057 23.4622 59.5247 24.2826 59.6289 25.2461C59.6549 25.7279 59.6419 26.2096 59.5898 26.6914C59.5508 27.1732 59.4922 27.5768 59.4141 27.9023C59.349 28.2148 59.2448 28.625 59.1016 29.1328C58.9583 29.6276 58.8021 30.0898 58.6328 30.5195Z" fill="#50A7BB"/>
<path d="M57.207 28.3398C57.207 28.2747 57.207 28.2031 57.207 28.125C57.207 28.0469 57.207 27.9818 57.207 27.9297C57.3372 27.2396 57.9297 26.4388 58.9844 25.5273C59.8698 25.0586 60.5534 24.375 61.0352 23.4766C61.3867 22.7865 61.9466 21.7708 62.7148 20.4297C62.9102 20.1302 63.2487 19.6875 63.7305 19.1016C64.3164 18.4375 64.8372 17.9232 65.293 17.5586C65.4232 17.4154 65.7812 16.9141 66.3672 16.0547C66.4844 15.8464 66.7122 15.5273 67.0508 15.0977C67.3633 15.0716 67.8711 15.5469 68.5742 16.5234C69.2513 17.5 69.5898 18.418 69.5898 19.2773C69.5898 20.0846 69.388 20.8464 68.9844 21.5625C68.5547 22.3047 68.0664 22.8451 67.5195 23.1836C67.168 23.418 66.7839 23.5352 66.3672 23.5352C66.0156 23.5091 65.7227 23.4701 65.4883 23.418C65.0977 23.3789 64.8177 23.3594 64.6484 23.3594C64.3099 23.3594 64.0039 23.3984 63.7305 23.4766C62.7799 23.8802 61.862 24.9609 60.9766 26.7188C60.7422 27.1875 60.5469 27.5586 60.3906 27.832C60.2344 28.1055 60.1302 28.2943 60.0781 28.3984C59.6875 29.0625 59.3229 29.5964 58.9844 30C58.5938 30.5469 58.2552 30.918 57.9688 31.1133C57.6302 31.3477 57.2786 31.5234 56.9141 31.6406L57.207 28.3398Z" fill="#50A7BB"/>
</svg>
