<svg version="1.1" id="Layer_1" xmlns="http://www.w3.org/2000/svg" x="0" y="0" viewBox="0 0 120 50" xml:space="preserve"><style>.st1{fill:#3d91b8}</style><path class="st1" d="M15.3 28.4c2.3 0 3.5-.6 3.5-1.7 0-.4-.2-.8-.5-1.5l-3.1-5.5 2.4-3h.8l3 6.8c.3.9.6 1.5.9 2.1.3.5.6 1 1 1.4.4.4.8.7 1.2.8.5.2 1 .2 1.7.2v5c-1.5 0-2.7-.3-3.6-.8-.9-.5-1.7-1.5-2.2-3-.3 1.5-.9 2.5-1.9 3.2-.9.6-2.2.9-3.6.9-3.8 0-5.7-1.8-5.7-5.5 0-.7 0-1.3.1-1.9h2.1v.4c0 .8.3 1.3.8 1.6.5.4 1.5.5 3.1.5z"/><path class="st1" d="M28.5 15.8l3.6-2.8h.6l-.5 13.8C32 30.9 30 33 26.1 33c-.7 0-1.3-.2-1.8-.7-.5-.5-.7-1.1-.7-1.8s.2-1.3.7-1.8c.5-.5 1.1-.7 1.8-.7 1.1 0 1.9-.2 2.4-.7.5-.5.7-1.3.7-2.4v-.6l-.7-8.5zM40.5 18.8c.7 0 1.3.1 1.9.4.6.3 1.1.7 1.5 1.1.4.5.7 1 1.1 1.7.3.7.6 1.3.7 2 .2.7.3 1.4.4 2.2.1.8.2 1.5.2 2.2 0 .7.1 1.3.1 2 0 1.2-.1 2.2-.2 3.1s-.4 1.7-.8 2.4-.8 1.5-1.4 2.1c-.6.5-1.3 1-2.2 1.4-.9.4-1.9.8-3.1 1.1l-4.1-3.4v-.7c.5-.1.9-.2 1.3-.3.4-.1.8-.2 1.4-.4.6-.2 1.1-.3 1.6-.4.5-.1 1-.3 1.5-.5.6-.2 1-.4 1.4-.6.4-.2.8-.4 1.1-.6.3-.2.6-.5.8-.7.2-.2.3-.5.3-.7 0-.9 0-1.7-.1-2.4s-.1-1.5-.2-2.2c-.1-.8-.3-1.4-.5-2-.2-.6-.5-1.1-.8-1.5-.3-.4-.7-.8-1.2-1-.5-.2-1-.4-1.6-.4-.8 0-1.5.4-2.1 1.1-.6.7-.9 1.5-.9 2.4 0 .4.1.8.3 1.1.2.3.5.5.8.6l1.2.3c.4.1.9.1 1.5.1.8 0 1.8-.1 3-.2s2.1-.3 2.6-.5c-.3 1.1-.5 2-.8 2.7-.3.7-.6 1.2-1.1 1.7-.5.5-1 .8-1.7 1-.6.2-1.5.3-2.5.3-1.8 0-3.1-.5-3.9-1.4-.8-1-1.2-2.4-1.2-4.3 0-1 .1-2 .3-3 .2-1 .6-1.9 1-2.8.4-.9 1-1.5 1.8-2.1s1.7-.9 2.6-.9zm5.5 9.3h1.9V33h-2l.1-4.9z"/><path class="st1" d="M50.4 15.1l-2.5 2.5-2.5-2.5 2.5-2.5 2.5 2.5zm-2.5 13c1.3 0 2.3-.1 2.9-.3.6-.2.9-.6.9-1.1 0-1.2-.4-2.8-1.3-4.6l2.9-2.5h.5c.6 1.9.9 3.9.9 5.9 0 1-.1 2-.4 2.9-.3.9-.7 1.7-1.2 2.4S51.9 32 51 32.4c-.9.4-1.9.6-3 .6-.7 0-1.3-.2-1.7-.7s-.7-1.1-.7-1.7c0-.7.2-1.3.7-1.7s.9-.8 1.6-.8zm7.6-13L53 17.6l-2.5-2.5 2.5-2.5 2.5 2.5zM70.7 40.5c-1.1 0-2.1-.1-3-.4-.9-.2-1.6-.6-2.1-1-.6-.4-1-.9-1.4-1.5-.4-.6-.6-1.2-.8-1.9-.1-.7-.2-1.4-.2-2.2 0-2.1.2-4.1.5-6l2 .4c-.2 1.2-.3 2.3-.3 3.2 0 .7.1 1.3.2 1.8s.4 1 .8 1.4c.4.4.9.7 1.6.9.7.2 1.6.3 2.6.3 2 0 3.4-.3 4.1-.9.7-.6 1.1-1.8 1.1-3.4v-1.3l-1-14.2 3.6-2.8h.6v17.9c0 3.4-.7 5.9-2.2 7.4-1.3 1.6-3.4 2.3-6.1 2.3zM89.5 28.1V33c-1.1 0-2-.1-2.8-.3-.8-.2-1.5-.6-2.1-1-.6-.5-1.1-1.1-1.4-2-.3-.8-.6-1.9-.6-3.1l-.8-10.9 3.6-2.8h.6l-.4 10.6v1c0 .8.1 1.4.2 1.9s.3.8.7 1.1c.3.3.7.4 1.2.5s.9.1 1.8.1z"/><path class="st1" d="M106.8 28.1c.8 0 1.4-.1 1.8-.2.4-.2.6-.4.6-.8 0-.6-.1-1.3-.3-2.2-.2-.9-.5-1.8-.9-2.6l2.9-2.5h.5c.2.8.5 1.8.6 3s.3 2.2.3 3.1c0 1.3-.2 2.5-.6 3.6-.4 1.1-1 2-1.8 2.7-.8.7-1.9 1-3 1-2 0-3.4-.7-4.2-2.1-.3.7-.8 1.2-1.5 1.6-.7.4-1.5.6-2.3.6-.9 0-1.7-.2-2.4-.7-.7-.5-1.3-1-1.7-1.8-.6.9-1.3 1.5-2.1 1.9-.8.4-1.8.6-3 .6-.7 0-1.3-.2-1.8-.7-.5-.5-.7-1.1-.7-1.8s.2-1.3.7-1.8c.5-.5 1.1-.7 1.8-.7.6 0 1.1 0 1.5-.1.4 0 .7-.2 1.1-.3.3-.2.6-.4.7-.5.2-.2.4-.5.6-1s.4-.9.5-1.3c.1-.4.3-1 .5-1.9l2-.4.3.3c-.3 1.4-.5 2.4-.5 3.1 0 .7.2 1.3.6 1.6s1 .5 1.9.5h1c.2 0 .5-.1.8-.2.3-.1.5-.3.6-.5.2-.2.3-.5.5-.9s.3-.9.4-1.4c.1-.5.2-1.2.4-2l2-.4.3.3c-.3 1.7-.4 2.8-.4 3.4 0 .7.2 1.2.6 1.5-.1-.2.6 0 1.7 0z"/></svg>