<svg version="1.1" id="Layer_1" xmlns="http://www.w3.org/2000/svg" x="0" y="0" viewBox="0 0 120 50" xml:space="preserve"><style>.st1{fill:#3d91b8}</style><path class="st1" d="M19.1 33c-1.9 0-3.6-.1-4.8-.4-1.3-.2-2.3-.6-3-1.2-.8-.6-1.3-1.2-1.6-2.1-.3-.8-.5-1.8-.5-3.1 0-1.1.1-2.5.4-4.1l2 .2c-.1.7-.1 1.3-.1 1.8v1.2c0 .3.1.6.2.9.1.3.2.5.4.7s.4.3.7.5c.3.1.6.2 1 .3.3.1.8.1 1.4.2.6 0 1.2.1 1.8.1h2.3c.9 0 1.7 0 2.5-.1.8 0 1.6-.1 2.3-.2.8-.1 1.4-.3 1.8-.5s.7-.4.7-.7c0-.4-.2-1.1-.5-2.1-.4-1-.7-1.8-1.1-2.5l3.2-2.2c.4.9.7 1.9.8 2.9s.3 2.1.3 3.6c0 1.2-.2 2.3-.7 3.2-.5.9-1.2 1.6-2 2.1-.9.5-1.9.9-3.2 1.2-1.4.2-2.8.3-4.3.3zm-.4-13l-2.5 2.5-2.5-2.5 2.5-2.5 2.5 2.5zm5.1 0l-2.5 2.5-2.5-2.5 2.5-2.5 2.5 2.5zM31.5 32.6l.7-4.5h5.4c.7 0 1.3 0 1.9-.1.5 0 1.1-.1 1.6-.3.6-.1 1-.3 1.4-.6.4-.2.6-.6.9-1 .2-.4.3-.9.3-1.5v-1.4l-.7-7.4 3.6-2.8h.6l-.6 12.2c0 1.3-.2 2.4-.6 3.4-.4 1-.9 1.7-1.5 2.3-.6.6-1.3 1-2.2 1.4-.9.3-1.7.6-2.6.7-.9.1-1.8.2-2.9.2h-4.9l-.4-.6zm4.8-5.6c-.1-2.1-.5-4-1-5.6-.6-1.6-1.3-3.1-2.3-4.5l2.6-4h.5c.9 1.9 1.5 3.7 2 5.4.4 1.7.7 3.5.7 5.5v1l-2 2.2h-.5zm8.3-4l2.1-.7c0 .8 0 1.5.1 2.1s.1 1.1.3 1.5c.1.4.3.8.5 1.1.2.3.5.5.8.6.3.2.7.3 1.2.3.4.1 1 .1 1.6.1v5c-1.7 0-3-.3-4-1s-1.7-1.6-2-2.6l-.6-6.4z"/><path class="st1" d="M51 38l-2.5 2.5L46 38l2.5-2.5L51 38zm4.5-15.2l1.7-.5.4.2c0 .8 0 1.5.1 2s.1 1 .3 1.5c.1.4.3.8.5 1 .2.2.5.5.8.6.3.2.7.3 1.2.3.4.1 1 .1 1.6.1v5c-1.2 0-2.3-.2-3.2-.6-.9-.4-1.7-1-2.3-1.9-1.2 1.6-3 2.5-5.5 2.5-.7 0-1.3-.2-1.8-.7-.5-.5-.7-1.1-.7-1.8s.2-1.3.7-1.8c.5-.5 1.1-.7 1.8-.7.9 0 1.7-.1 2.3-.2.6-.2 1-.5 1.3-.9.3-.4.5-1 .6-1.6.2-.6.2-1.4.2-2.5zm.7 15.2l-2.5 2.5-2.5-2.5 2.5-2.5 2.5 2.5z"/><path class="st1" d="M68.5 22.6c0 .9 0 1.7.1 2.3.1.6.2 1.1.5 1.6.3.4.5.8.8 1 .3.2.7.4 1.3.5.6.1 1.2.2 1.8.2h2.5c1.6 0 3.1-.2 4.4-.5 1.3-.3 1.9-.8 1.9-1.5 0-.8-.3-1.5-1-2.1-.7-.6-1.7-.9-2.9-.9s-2.5.5-3.9 1.4c-1.4 1-2.4 2.1-3 3.4l-1.6-.9c.6-1.1 1.2-2.1 1.9-3 .7-.9 1.5-1.8 2.3-2.6.8-.8 1.7-1.4 2.7-1.8 1-.4 1.9-.7 2.9-.7 1.7 0 3.1.5 4.1 1.4 1 .9 1.5 2.2 1.5 3.8 0 1.4-.3 2.6-.8 3.8-.6 1.1-1.3 2.1-2.3 2.8-1 .7-2.1 1.3-3.3 1.7-1.2.4-2.6.6-4 .6s-2.8-.2-3.9-.7c-1.2-.5-2.1-1.1-2.8-1.9-1.2 1.6-3 2.5-5.5 2.5-.7 0-1.3-.2-1.8-.7-.5-.5-.7-1.1-.7-1.8s.2-1.3.7-1.8c.5-.5 1.1-.7 1.8-.7.9 0 1.7-.1 2.3-.2.6-.2 1-.5 1.3-.9.3-.4.5-1 .6-1.6.1-.6.2-1.4.2-2.5l1.7-.5.2.3zm14.2 4.8c.6.5 1.7.7 3.2.7V33c-1.2 0-2.3-.2-3.2-.6-.9-.4-1.7-1-2.3-1.9l2.3-3.1z"/><path class="st1" d="M103.8 22.8l-1 3.3-3.8 1.1c-.5.2-1 .4-1.5.7-.5.3-.9.6-1.2.9-.3.3-.7.6-1.1 1.1-.5.5-.9.8-1.3 1.1-.4.3-.9.6-1.5 1-.6.3-1.3.6-2.1.8-.8.2-1.7.2-2.6.2h-1.8c-.7 0-1.3-.2-1.8-.7-.5-.5-.7-1.1-.7-1.8s.2-1.3.7-1.8c.5-.5 1.1-.7 1.8-.7h2.8c1.6 0 3-.2 4.3-.7 1.3-.5 2.7-1.3 4.3-2.3-3.3-1.9-5.5-2.8-6.6-2.8-1.2 0-2.1.9-2.8 2.6l-1.7-.6c.6-2 1.3-3.5 2.2-4.5.9-1 1.9-1.5 3-1.5.6 0 1.3.1 1.9.3.7.2 1.2.4 1.6.7.4.2 1 .6 1.8 1 2.1 1.3 4.4 2 6.6 2.1l.5.5zm-5.1.2l2.1-.7c0 .8 0 1.5.1 2.1s.1 1.1.3 1.5c.1.4.3.8.5 1.1.2.3.5.5.8.6s.7.3 1.2.3c.4.1 1 .1 1.6.1v5c-1.9 0-3.4-.5-4.5-1.4-1.1-.9-1.9-2.4-2.4-4.4l.3-4.2z"/><path class="st1" d="M107.7 15.1l-2.5 2.5-2.5-2.5 2.5-2.5 2.5 2.5zm-2.5 13c1.3 0 2.3-.1 2.9-.3.6-.2.9-.6.9-1.1 0-1.2-.4-2.8-1.3-4.6l2.9-2.5h.5c.6 1.9.9 3.9.9 5.9 0 1-.1 2-.4 2.9-.3.9-.7 1.7-1.2 2.4s-1.2 1.2-2.1 1.6c-.9.4-1.9.6-3 .6-.7 0-1.3-.2-1.7-.7s-.7-1.1-.7-1.7c0-.7.2-1.3.7-1.7s.9-.8 1.6-.8zm7.6-13l-2.5 2.5-2.5-2.5 2.5-2.5 2.5 2.5z"/></svg>