<svg version="1.1" id="Layer_1" xmlns="http://www.w3.org/2000/svg" x="0" y="0" viewBox="0 0 120 50" xml:space="preserve"><style>.st1{fill:#3d91b8}</style><path class="st1" d="M14.9 40.5c-1.1 0-2.1-.1-3-.4-.9-.2-1.6-.6-2.1-1-.6-.4-1-.9-1.4-1.5-.4-.6-.6-1.2-.8-1.9-.1-.7-.2-1.4-.2-2.2 0-2.1.2-4.1.5-6l2 .4c-.2 1.2-.3 2.3-.3 3.2 0 .7.1 1.3.2 1.8s.4 1 .8 1.4c.4.4.9.7 1.6.9.7.2 1.6.3 2.6.3 2 0 3.4-.3 4.1-.9.7-.6 1.1-1.8 1.1-3.4v-1.3l-1-14.2 3.6-2.8h.6v17.9c0 3.4-.7 5.9-2.2 7.4-1.4 1.6-3.4 2.3-6.1 2.3zm8.3-17.9c0 .8 0 1.5.1 2s.1 1 .3 1.5c.1.4.3.8.5 1 .2.2.5.5.8.6.3.2.7.3 1.2.3.4.1 1 .1 1.6.1V33c-1.2 0-2.3-.2-3.2-.6-.9-.4-1.7-1-2.3-1.9l1-7.9z"/><path class="st1" d="M43 26.3c0 2.3-.5 4-1.4 5.2-.9 1.2-2.2 1.8-3.8 1.8-3.2 0-5.8-1.9-8-5.6l1.2-2c1.3.9 2.6 1.6 3.8 2 1.2.4 2.5.6 3.8.6.7 0 1.3-.1 1.6-.3s.5-.6.5-1.1c0-1.1-.4-2.1-1.3-2.9-.9-.8-1.8-1.1-2.8-1.1-.4 0-.8.1-1.2.3-.4.2-.7.5-1 .8-.3.3-.6.7-.9 1.2-.3.5-.6 1-.8 1.5-.2.5-.5 1-.7 1.7-.2.5-.4.9-.5 1.2s-.3.6-.5 1-.4.7-.6.9l-.7.7c-.3.2-.6.4-1 .5-.2.3-.6.3-1 .3-.7 0-1.3-.2-1.8-.7-.5-.5-.7-1.1-.7-1.8s.2-1.3.7-1.8c.5-.5 1.1-.7 1.8-.7.8 0 1.5-.4 2.1-1.1.6-.7 1.4-1.9 2.3-3.6.8-1.5 1.6-2.5 2.5-3.2.9-.7 1.8-1 2.8-1 1.2 0 2.2.3 3 1s1.5 1.5 1.9 2.6c.5 1.1.7 2.3.7 3.6zM53 28.1V33c-1.1 0-2-.1-2.8-.3-.8-.2-1.5-.6-2.1-1-.6-.5-1.1-1.1-1.4-2-.3-.8-.6-1.9-.6-3.1l-.8-10.9 3.6-2.8h.6l-.4 10.6v1c0 .8.1 1.4.2 1.9s.3.8.7 1.1c.3.3.7.4 1.2.5s1 .1 1.8.1z"/><path class="st1" d="M53 28.1h1.5c1.2 0 2.2-.1 2.9-.3.7-.2 1.2-.4 1.4-.7.2-.3.3-.6.3-1 0-.7-.5-1.6-1.6-2.8-1.1-1.1-2.4-2.3-4-3.6l.5-4 12-4.1.6.4-.8 4.2-7.6 2.3c1.3 1.2 2.3 2.4 3 3.8.7 1.3 1 2.7 1 4 0 2.1-.6 3.7-1.8 4.9-1.2 1.2-2.9 1.8-5.3 1.8H53c-.7 0-1.3-.2-1.8-.7-.5-.5-.7-1.1-.7-1.8s.2-1.3.7-1.8c.6-.4 1.2-.6 1.8-.6zM74.7 28.2c.3-1 .6-1.9.8-2.6.3-.7.6-1.4 1-2.2.4-.7.8-1.3 1.3-1.8.4-.4 1-.8 1.6-1.1.6-.3 1.4-.4 2.1-.4.7 0 1.4.2 2.1.5.7.3 1.3.8 1.9 1.4.5.6 1 1.3 1.3 2.1s.5 1.7.5 2.5c0 2.2-.5 3.8-1.5 5-1 1.2-2.1 1.8-3.5 1.8-1.1 0-2.3-.2-3.8-.5-1.3-.3-2.3-.5-3.1-.5-.6 0-1.1.2-1.5.5-.4.3-.5.9-.5 1.7v.7l.7 6.7-3.2 2.1h-.6v-9.8c0-2 .4-3.6 1.1-4.7.7-1.1 1.7-1.6 2.8-1.6 1.1 0 2.6.1 4.4.4 1.9.3 3.4.4 4.4.4.4 0 .8-.1 1-.2.2-.2.3-.5.3-.9 0-1-.4-1.9-1.3-2.7s-1.8-1.1-2.7-1.1c-.9 0-1.7.4-2.2 1.2-.5.8-1 2-1.4 3.6l-2-.5zM97.4 28.1V33c-1.1 0-2-.1-2.8-.3-.8-.2-1.5-.6-2.1-1-.6-.5-1.1-1.1-1.4-2-.3-.8-.6-1.9-.6-3.1l-.8-10.9 3.6-2.8h.6l-.4 10.6v1c0 .8.1 1.4.2 1.9s.3.8.7 1.1c.3.3.7.4 1.2.5s1 .1 1.8.1z"/><path class="st1" d="M97.4 28.1c1.3 0 2.3-.1 2.9-.3.6-.2.9-.6.9-1.1 0-1.2-.4-2.8-1.3-4.6l2.9-2.5h.5c.6 1.9.9 3.9.9 5.9 0 1-.1 2-.4 2.9-.3.9-.7 1.7-1.2 2.4s-1.2 1.2-2.1 1.6c-.9.4-1.9.6-3 .6-.7 0-1.3-.2-1.7-.7s-.7-1.1-.7-1.7c0-.7.2-1.3.7-1.7s.9-.8 1.6-.8zm5-13l-2.5 2.5-2.5-2.5 2.5-2.5 2.5 2.5z"/></svg>