<svg version="1.1" id="Layer_1" xmlns="http://www.w3.org/2000/svg" x="0" y="0" viewBox="0 0 120 50" xml:space="preserve"><style>.st1{fill:#3d91b8}</style><path class="st1" d="M26.2 28.1c1.1 0 2.1 0 2.8-.1s1.4-.1 2.1-.3c.6-.1 1.1-.3 1.5-.6.3-.2.6-.5.9-1 .2-.4.4-.9.5-1.4.1-.5.1-1.2.1-2l1.7-.5.4.2c0 .8 0 1.5.1 2s.1 1 .3 1.5c.1.4.3.8.5 1 .2.2.5.5.8.6.3.2.7.3 1.2.3.4.1 1 .1 1.6.1V33c-2.6 0-4.5-.9-5.7-2.8-.7 1-1.8 1.7-3.2 2.2s-3.5.6-5.7.6c-1.9 0-3.6-.1-4.8-.4-1.3-.2-2.3-.6-3-1.2-.8-.6-1.3-1.2-1.6-2.1-.3-.8-.5-1.8-.5-3.1 0-1.1.1-2.5.4-4.1l2 .2c-.1.7-.1 1.3-.1 1.8 0 .6 0 1 .1 1.4.1.4.3.7.5 1 .2.3.6.5.9.7.4.2.8.3 1.5.4.6.1 1.3.2 2 .2.7.2 1.6.3 2.7.3zm0-7.9l-2.5 2.5-2.5-2.5 2.5-2.5 2.5 2.5zm5.1 0l-2.5 2.5-2.5-2.5 2.5-2.5 2.5 2.5z"/><path class="st1" d="M40.5 38L38 40.5 35.5 38l2.5-2.5 2.5 2.5zm4.4-15.2l1.7-.5.4.2c0 .8 0 1.5.1 2s.1 1 .3 1.5c.1.4.3.8.5 1 .2.2.5.5.8.6.3.2.7.3 1.2.3.4.1 1 .1 1.6.1v5c-1.2 0-2.3-.2-3.2-.6-.9-.4-1.7-1-2.3-1.9-1.2 1.6-3 2.5-5.5 2.5-.7 0-1.3-.2-1.8-.7-.5-.5-.7-1.1-.7-1.8s.2-1.3.7-1.8c.5-.5 1.1-.7 1.8-.7.9 0 1.7-.1 2.3-.2.6-.2 1-.5 1.3-.9.3-.4.5-1 .6-1.6.2-.6.2-1.4.2-2.5zm.7 15.2l-2.5 2.5-2.5-2.5 2.5-2.5 2.5 2.5z"/><path class="st1" d="M68.8 28.1c.9 0 1.6-.1 1.9-.4.3-.2.5-.7.5-1.4 0-.4-.1-1.1-.2-1.9l-.3-1.9 1.8-1.8h.5l.7 3.5c.2.9.4 1.6.6 2.1.2.5.5.9.9 1.2.4.3.8.5 1.3.6.5.1 1.1.1 1.9.1V33c-2.4 0-4.3-.8-5.5-2.5-.8 1.6-2.2 2.5-4 2.5-2 0-3.4-.7-4.2-2.1-.3.7-.8 1.2-1.5 1.6-.7.4-1.5.6-2.3.6-.9 0-1.7-.2-2.4-.7-.7-.5-1.3-1-1.7-1.8-.6.9-1.3 1.5-2.1 1.9-.8.4-1.8.6-3 .6-.7 0-1.3-.2-1.8-.7-.5-.5-.7-1.1-.7-1.8s.2-1.3.7-1.8c.5-.5 1.1-.7 1.8-.7.6 0 1.1 0 1.5-.1.4 0 .7-.2 1.1-.3.3-.2.6-.4.7-.5.2-.2.4-.5.6-1s.4-.9.5-1.3c.1-.4.3-1 .5-1.9l2-.4.3.3c-.3 1.4-.5 2.4-.5 3.1 0 .7.2 1.3.6 1.6s1 .5 1.9.5h1c.2 0 .5-.1.8-.2.3-.1.5-.3.6-.5.2-.2.3-.5.5-.9s.3-.9.4-1.4c.1-.5.2-1.2.4-2l2-.4.3.3c-.3 1.7-.4 2.8-.4 3.4 0 .7.2 1.2.6 1.5-.1 0 .6.2 1.7.2z"/><path class="st1" d="M82.6 22.8l1.7-.5.4.2c0 .8 0 1.5.1 2s.1 1 .3 1.5c.1.4.3.8.5 1 .2.2.5.5.8.6.3.2.7.3 1.2.3.4.1 1 .1 1.6.1v5c-1.2 0-2.3-.2-3.2-.6-.9-.4-1.7-1-2.3-1.9-1.2 1.6-3 2.5-5.5 2.5-.7 0-1.3-.2-1.8-.7-.5-.5-.7-1.1-.7-1.8s.2-1.3.7-1.8c.5-.5 1.1-.7 1.8-.7.9 0 1.7-.1 2.3-.2.6-.2 1-.5 1.3-.9.3-.4.5-1 .6-1.6.2-.6.2-1.4.2-2.5zm.8-5.4l-2.5 2.5-2.5-2.5 2.5-2.5 2.5 2.5z"/><path class="st1" d="M107.1 22.8l-1 3.3-3.8 1.2c-.5.2-1 .4-1.5.7-.5.3-.9.6-1.2.9-.3.3-.7.6-1.1 1.1-.5.5-.9.8-1.3 1.1-.4.3-.9.6-1.5 1-.6.3-1.3.6-2.1.8-.8.2-1.7.2-2.6.2h-1.8c-.7 0-1.3-.2-1.8-.7-.5-.5-.7-1.1-.7-1.8s.2-1.3.7-1.8c.5-.5 1.1-.7 1.8-.7H92c1.6 0 3-.2 4.3-.7 1.3-.5 2.7-1.3 4.3-2.3-3.3-1.9-5.5-2.8-6.6-2.8-1.2 0-2.1.9-2.8 2.6l-1.7-.6c.6-2 1.3-3.5 2.2-4.5.9-1 1.9-1.5 3-1.5.6 0 1.3.1 1.9.3.7.2 1.2.4 1.6.7.4.2 1 .6 1.8 1 2.1 1.3 4.4 2 6.6 2.1l.5.4zM98.6 38l-2.5 2.5-2.5-2.5 2.5-2.5 2.5 2.5z"/></svg>