<svg version="1.1" id="Layer_1" xmlns="http://www.w3.org/2000/svg" x="0" y="0" viewBox="0 0 120 50" xml:space="preserve"><style>.st1{fill:#3d91b8}</style><path class="st1" d="M10.3 35.7c-.6 0-1.2 0-1.7-.1s-1-.2-1.4-.4c-.5-.2-.9-.5-1.2-.8-.3-.3-.6-.7-.8-1.2-.2-.5-.3-1.1-.3-1.8 0-.9.2-1.7.6-2.5s.9-1.5 1.6-2.1c.7-.6 1.5-1.1 2.5-1.4 1-.4 2.1-.5 3.3-.5H15v4H9.2c-.3 0-.6.1-.8.1-.2 0-.4.1-.7.2l-.6.3c-.1.1-.2.3-.3.5s-.1.4-.1.7c0 .3.1.5.2.7.1.2.3.4.5.5.2.1.5.2.8.3s.7.1 1 .1H18l.3.6-2.7 2.8h-5.3z"/><path class="st1" d="M15 24.9c1.1 0 1.8-.1 2.3-.2.5-.2.7-.4.7-.9 0-1-.3-2.2-1-3.7l2.3-2h.4c.5 1.6.7 3.1.7 4.8 0 .8-.1 1.6-.3 2.3-.2.7-.5 1.4-1 1.9s-1 1-1.7 1.3c-.7.3-1.5.5-2.4.5-.5 0-1-.2-1.4-.6-.4-.4-.6-.9-.6-1.4s.2-1 .6-1.4c.4-.4.8-.6 1.4-.6zm4.1-10.4l-2 2-2-2 2-2 2 2zM28.6 24.9v4c-.9 0-1.6-.1-2.2-.3-.6-.2-1.2-.4-1.7-.8s-.9-.9-1.1-1.6-.4-1.5-.5-2.5l-.8-8.7 2.9-2.3h.5l-.3 8.5v.8c0 .6 0 1.1.1 1.5.1.4.3.7.5.9.3.2.6.3 1 .4s.9.1 1.6.1z"/><path class="st1" d="M43 20.6l-.8 2.7-3 .9c-.4.1-.8.3-1.2.6s-.7.5-1 .7l-.9.9c-.4.4-.7.7-1 .9-.3.2-.7.5-1.2.8-.5.3-1.1.5-1.7.6-.6.1-1.3.2-2.1.2h-1.4c-.6 0-1-.2-1.4-.6s-.6-.9-.6-1.4.2-1 .6-1.4.9-.6 1.4-.6H31c1.3 0 2.4-.2 3.5-.6s2.2-1 3.5-1.9c-2.7-1.5-4.5-2.3-5.3-2.3-1 0-1.7.7-2.3 2.1l-1.4-.5c.5-1.6 1.1-2.8 1.8-3.6.7-.8 1.5-1.2 2.4-1.2.5 0 1 .1 1.6.3.5.2 1 .4 1.3.5.3.2.8.5 1.4.8 1.7 1 3.5 1.6 5.3 1.7l.2.4zm-4.1.2l1.7-.5c0 .7 0 1.2.1 1.7 0 .5.1.9.2 1.2.1.4.2.6.4.9.2.2.4.4.7.5l.9.3c.3 0 .8.1 1.3.1v4c-1.5 0-2.8-.4-3.6-1.1s-1.5-1.9-2-3.6l.3-3.5z"/><path class="st1" d="M47.7 20.7l1.4-.4.3.2c0 .6 0 1.2.1 1.6 0 .4.1.8.2 1.2.1.3.2.6.4.8.2.2.4.4.7.5l.9.3c.3 0 .8.1 1.3.1v4c-1 0-1.8-.2-2.6-.5-.7-.3-1.3-.8-1.9-1.5-.9 1.3-2.4 2-4.4 2-.6 0-1-.2-1.4-.6s-.6-.9-.6-1.4.2-1 .6-1.4.9-.6 1.4-.6c.8 0 1.4-.1 1.8-.2.5-.1.8-.4 1.1-.7.3-.4.4-.8.5-1.3.2-.6.2-1.2.2-2.1zm-1.4-4.4l-2 2-2-2 2-2 2 2zm4.2 0l-2 2-2-2 2-2 2 2z"/><path class="st1" d="M65.4 23.5c0 1.8-.4 3.2-1.1 4.2-.8 1-1.8 1.5-3 1.5-2.6 0-4.7-1.5-6.4-4.5l1-1.6c1.1.7 2.1 1.3 3.1 1.6 1 .3 2 .5 3.1.5.6 0 1-.1 1.3-.3.3-.2.4-.5.4-.9 0-.9-.3-1.7-1-2.3-.7-.6-1.4-.9-2.3-.9-.3 0-.7.1-1 .3-.3.2-.6.4-.8.6-.2.2-.5.6-.7 1l-.6 1.2c-.2.4-.4.8-.6 1.4-.2.4-.3.7-.4 1-.1.2-.2.5-.4.8s-.3.6-.5.8c-.2.2-.4.4-.6.5-.2.2-.5.3-.8.4-.3.1-.6.1-.9.1-.6 0-1-.2-1.4-.6s-.8-.8-.8-1.4.2-1 .6-1.4.9-.6 1.4-.6c.6 0 1.2-.3 1.7-.9.5-.6 1.1-1.5 1.9-2.9.6-1.2 1.3-2 2-2.6.7-.6 1.5-.8 2.3-.8 1 0 1.8.3 2.5.8s1.2 1.2 1.5 2.1c.3.9.5 1.8.5 2.9zM68.1 28.9L67.2 15l2.9-2.3h.5l-.3 14.1-1.8 2.1h-.4zM85.3 28.9c-2.8 0-4.8-.4-6-1.2-1.2-.8-1.8-2.2-1.8-4.1 0-.9.1-2 .4-3.3l1.6.2c-.1.6-.1 1-.1 1.4 0 .5.1 1 .2 1.3s.3.6.6.9c.3.2.6.4 1.1.5s1 .2 1.6.3c.6.1 1.3.1 2.3.1 3.6 0 5.4-.5 5.4-1.6 0-.6-.4-1.3-1.3-2.3s-2-1.9-3.2-2.9l.4-3.3 9.6-3.3.5.3-.6 3.4-6.1 1.9c1 .9 1.8 2 2.4 3s.8 2.2.8 3.2c0 .8-.1 1.5-.4 2.1-.3.6-.7 1.2-1.3 1.7-.6.5-1.4.9-2.4 1.2-1.2.4-2.4.5-3.7.5zm1.3-17.1l9.3-3.3.5.3-.2 1-9.3 3.3-.5-.3.2-1zM92.6 31.7c.6-.1 1-.3 1.4-.4s.9-.2 1.6-.4c.7-.2 1.2-.4 1.7-.5.5-.2.9-.4 1.4-.6s.8-.4 1.1-.7c.2-.2.4-.5.4-.7 0-.6-.2-1.5-.7-2.7-.5-1.2-1-2.3-1.6-3.3l2.2-2.7.4-.1c1.2 2.3 1.8 4.7 1.8 7 0 1.2-.1 2.2-.3 3.1-.2.9-.5 1.6-1 2.3-.5.7-1.1 1.3-1.9 1.7s-1.8.8-3 1.2l-3.3-2.7-.2-.5zm12.7-6.8v4c-1.9 0-3.3-.7-4.4-2.2l-.6-7 1.6 3.2c.2.4.4.7.5.9l.6.6c.3.2.6.3.9.4.4.1.9.1 1.4.1z"/><path class="st1" d="M107.3 32.9l-2 2-2-2 2-2 2 2zm-2-8c1.1 0 1.8-.1 2.3-.2s.7-.4.7-.9c0-1-.3-2.2-1-3.7l2.3-2h.4c.5 1.6.7 3.1.7 4.8 0 .8-.1 1.6-.3 2.3-.2.7-.5 1.4-1 1.9-.4.6-1 1-1.7 1.3-.7.3-1.5.5-2.4.5-.5 0-1-.2-1.4-.6-.4-.4-.6-.9-.6-1.4s.2-1 .6-1.4c.4-.4.9-.6 1.4-.6z"/></svg>